<?xml version="1.0" encoding="UTF-8"?>
<svg xmlns="http://www.w3.org/2000/svg" xmlns:xlink="http://www.w3.org/1999/xlink" version="1.2" >
<font id="Afrah Regular">
<font-face  font-family="Afrah" units-per-em="1024" ascent="1032" descent="-300" font-style="normal" font-weight="400" font-stretch="normal" cap-height="1087" x-height="516" underline-position="-125" underline-thickness="50" />
<missing-glyph  horiz-adv-x="100" d="" />
<glyph glyph-name="NULL" d="" />
<glyph glyph-name="CR" unicode="&#xd;" horiz-adv-x="256" d="" />
<glyph glyph-name="space" unicode="&#x20;" horiz-adv-x="283" d="" />
<glyph glyph-name="exclam" unicode="&#x21;" horiz-adv-x="214" d="M107 -5 C128 -5 149 16 149 37 C149 59 128 80 107 80 C86 80 65 59 65 37 C65 16 86 -5 107 -5 L107 -5 Z M107 799 C83 799 67 754 70 709 L101 228 L112 228 L144 709 C147 754 131 799 107 799 L107 799 Z " />
<glyph glyph-name="quotedbl" unicode="&#x22;" horiz-adv-x="351" d="M215 794 C203 794 194 772 197 749 L218 604 L226 604 L247 749 C250 772 241 794 229 794 L215 794 L215 794 Z M95 794 C83 794 74 772 77 749 L98 604 L106 604 L127 749 C130 772 121 794 109 794 L95 794 L95 794 Z " />
<glyph glyph-name="numbersign" unicode="&#x23;" horiz-adv-x="570" d="M421 721 L393 527 L225 527 L253 721 L245 721 L217 527 L71 527 L65 481 L210 481 L173 223 L25 223 L19 177 L167 177 L141 0 L149 0 L175 177 L343 177 L317 0 L324 0 L350 177 L492 177 L499 223 L356 223 L393 481 L544 481 L550 527 L400 527 L428 721 L421 721 L421 721 Z M218 481 L386 481 L349 223 L181 223 L218 481 L218 481 Z " />
<glyph glyph-name="dollar" unicode="&#x24;" horiz-adv-x="574" d="M52 196 L52 59 L57 59 C57 64 58 74 58 79 C59 101 89 99 117 75 L117 75 C152 45 194 20 236 5 L236 -75 L258 -75 L258 -2 C278 -8 297 -11 316 -11 L316 -76 L338 -76 L338 -9 C440 4 534 99 534 196 C534 268 448 380 338 432 L338 781 C340 780 363 770 362 769 C402 748 457 691 472 653 C473 649 477 643 478 639 L491 639 L491 740 L486 740 C486 737 485 732 485 729 C484 717 461 722 440 738 L440 738 C411 760 376 778 337 790 L337 868 L315 868 L315 796 C295 801 276 804 257 804 L257 869 L235 869 L235 802 C148 788 69 698 69 606 C69 545 139 453 235 391 L235 15 C212 25 188 39 166 55 C130 84 85 143 70 180 C69 184 65 190 64 194 L52 196 L52 196 Z M257 376 C276 365 296 356 315 346 L315 -5 C296 -5 277 -1 257 6 L257 376 L257 376 Z M337 334 C417 285 476 217 476 175 C476 94 410 14 337 -1 L337 334 L337 334 Z M257 477 L257 798 C276 798 295 794 315 788 L315 442 C295 452 276 464 258 476 L257 477 L257 477 Z M236 492 C170 541 126 597 126 632 C126 706 177 778 236 794 L236 492 L236 492 Z " />
<glyph glyph-name="percent" unicode="&#x25;" horiz-adv-x="834" d="M89 599 C89 700 136 799 183 799 C234 799 284 688 284 575 C284 478 236 382 188 382 C138 382 89 489 89 599 L89 599 Z M30 587 C30 480 107 376 186 376 C264 376 340 484 340 595 C340 701 264 804 186 804 C107 804 30 697 30 587 L30 587 Z M561 216 C561 315 609 412 657 412 C712 412 765 303 765 192 C765 93 714 -4 662 -4 C611 -4 561 105 561 216 L561 216 Z M502 205 C502 96 580 -10 660 -10 C742 -10 822 100 822 213 C822 317 742 418 660 418 C580 418 502 313 502 205 L502 205 Z M190 -2 L668 792 L660 796 L181 2 L190 -2 L190 -2 Z " />
<glyph glyph-name="ampersand" unicode="&#x26;" horiz-adv-x="856" d="M310 472 L317 465 C396 489 474 562 474 612 C474 709 395 804 315 804 C232 804 151 704 151 602 C151 574 199 507 255 438 L246 441 C145 410 46 291 46 200 C46 94 145 -10 245 -10 C314 -10 407 56 495 156 C512 136 529 116 546 95 C591 41 667 -11 700 -11 C757 -11 822 67 832 146 L821 150 C814 93 767 38 725 38 C699 38 636 82 598 127 C576 153 555 178 534 202 C611 300 681 421 725 543 L710 543 C667 425 597 308 522 217 C418 340 337 432 337 432 C270 512 204 599 204 633 C204 712 259 789 315 789 C371 789 425 703 425 615 C425 560 368 489 310 471 L310 472 L310 472 Z M482 171 C410 94 336 45 280 45 C194 45 109 131 109 218 C109 304 181 411 256 435 C301 379 336 343 482 170 L482 171 L482 171 Z " />
<glyph glyph-name="quotesingle" unicode="&#x27;" horiz-adv-x="216" d="M95 794 C83 794 74 772 77 749 L98 604 L106 604 L127 749 C130 772 121 794 109 794 L95 794 L95 794 Z " />
<glyph glyph-name="parenleft" unicode="&#x28;" horiz-adv-x="213" d="M196 804 C127 722 60 523 60 295 C60 67 127 -132 196 -214 L203 -208 C154 -150 106 41 106 295 C106 549 154 740 203 798 L196 804 L196 804 Z " />
<glyph glyph-name="parenright" unicode="&#x29;" horiz-adv-x="165" d="M6 797 C60 762 113 513 113 295 C113 77 60 -172 6 -207 L10 -214 C83 -166 155 86 155 295 C155 504 83 756 10 804 L6 797 L6 797 Z " />
<glyph glyph-name="asterisk" unicode="&#x2a;" horiz-adv-x="276" d="M269 716 L269 716 L269 716 Z M247 597 C256 590 270 592 276 602 C281 611 276 624 265 628 C265 628 252 605 248 597 L247 597 L247 597 Z M269 716 C279 721 284 734 279 744 C273 753 259 755 250 747 C250 747 264 725 269 717 L269 716 L269 716 Z M40 628 C30 623 25 610 31 600 C37 590 51 588 60 596 L58 597 L148 668 L132 554 C130 542 139 531 150 531 C161 531 170 542 168 554 C163 593 157 632 152 671 L244 598 L262 629 L154 672 L265 717 L247 748 L152 673 L151 673 L151 673 L168 793 C170 805 161 816 150 816 C139 816 130 805 132 793 L149 674 L56 748 L56 748 C47 755 33 753 28 743 C23 733 28 720 39 716 L149 672 L149 671 L40 627 L40 628 L40 628 Z " />
<glyph glyph-name="plus" unicode="&#x2b;" horiz-adv-x="647" d="M300 493 L300 291 L100 291 L100 248 L300 248 L300 46 L347 46 L347 248 L547 248 L547 291 L347 291 L347 493 L300 493 L300 493 Z " />
<glyph glyph-name="comma" unicode="&#x2c;" horiz-adv-x="259" d="M172 37 C195 -36 135 -107 65 -107 L65 -111 C128 -111 189 -51 189 10 C189 39 179 68 165 88 C155 103 140 114 125 114 C95 114 65 84 65 54 C65 24 95 -6 125 -6 C145 -6 165 13 172 36 L172 37 L172 37 Z " />
<glyph glyph-name="hyphen" unicode="&#x2d;" horiz-adv-x="457" d="M80 285 L377 285 L377 335 L80 335 L80 285 L80 285 Z " />
<glyph glyph-name="period" unicode="&#x2e;" horiz-adv-x="195" d="M125 -5 C146 -5 167 16 167 37 C167 59 146 80 125 80 C104 80 83 59 83 37 C83 16 104 -5 125 -5 L125 -5 Z " />
<glyph glyph-name="slash" unicode="&#x2f;" horiz-adv-x="382" d="M316 814 L34 -80 L70 -80 L352 814 L316 814 L316 814 Z " />
<glyph glyph-name="zero" unicode="0" horiz-adv-x="651" d="M76 272 C76 389 200 529 327 529 C441 529 578 402 578 272 C578 155 454 15 327 15 C213 15 76 142 76 272 L76 272 Z M48 272 C48 130 200 -10 327 -10 C468 -10 606 144 606 272 C606 414 454 554 327 554 C186 554 48 400 48 272 L48 272 Z " />
<glyph glyph-name="one" unicode="1" horiz-adv-x="185" d="M123 0 L123 544 L62 544 L62 0 L123 0 L123 0 Z " />
<glyph glyph-name="two" unicode="2" horiz-adv-x="558" d="M57 317 C76 413 170 508 247 508 C323 508 398 434 398 359 C398 253 192 93 21 6 L28 1 C25 0 23 0 21 0 L453 0 C456 4 486 53 486 53 L495 66 C495 66 496 67 495 67 L495 68 L493 65 C489 59 452 53 419 53 L126 53 C294 153 458 288 458 374 C458 465 369 555 278 555 C183 555 68 439 45 321 L57 317 L57 317 Z " />
<glyph glyph-name="three" unicode="3" horiz-adv-x="443" d="M18 -220 L20 -232 C213 -212 403 -93 403 8 C403 95 272 180 133 188 C274 255 402 354 402 419 C402 488 317 555 230 555 C143 555 41 476 22 396 L35 392 C49 453 134 513 206 513 C273 513 338 457 338 399 C338 331 218 235 95 183 L95 171 C96 171 97 171 98 171 C97 170 96 170 95 170 C219 153 340 64 340 -9 C340 -98 181 -203 18 -220 L18 -220 Z " />
<glyph glyph-name="four" unicode="4" horiz-adv-x="671" d="M598 46 L442 46 L442 576 L434 576 L15 11 L15 0 L381 0 L381 -220 L442 -220 L442 0 L591 0 C616 0 637 -2 640 -5 L646 -5 L650 23 C652 34 655 54 657 65 L655 65 C652 66 651 66 651 66 C647 53 625 46 598 46 L598 46 Z M383 472 L382 470 L381 46 L69 46 L383 472 L383 472 Z " />
<glyph glyph-name="five" unicode="5" horiz-adv-x="457" d="M322 544 L111 544 L49 233 L61 224 L87 223 C232 223 374 126 374 28 C374 -79 218 -202 59 -222 L60 -233 C245 -210 427 -71 427 48 C427 169 262 287 94 287 L81 287 L123 490 L368 492 L374 527 C376 535 378 544 379 550 L373 550 C370 547 347 545 323 545 L322 544 L322 544 Z " />
<glyph glyph-name="six" unicode="6" horiz-adv-x="594" d="M577 794 C314 794 56 551 56 304 C56 145 180 -10 307 -10 C426 -10 542 120 542 253 C542 379 421 502 297 502 C231 502 166 453 131 388 C185 602 380 785 579 785 L577 794 L577 794 Z M116 272 C116 385 205 496 295 496 C389 496 482 377 482 256 C482 124 395 -5 306 -5 C210 -5 116 132 116 272 L116 272 Z " />
<glyph glyph-name="seven" unicode="7" horiz-adv-x="467" d="M78 540 L78 540 L78 540 Z M77 539 L67 519 C70 524 75 534 77 539 L77 539 Z M113 495 L437 495 L445 506 L114 -220 L160 -220 L461 528 L461 544 L79 544 L59 497 C57 493 55 490 54 487 C55 487 59 485 59 485 C65 491 86 495 113 495 L113 495 Z " />
<glyph glyph-name="eight" unicode="8" horiz-adv-x="569" d="M240 407 C249 402 258 398 267 394 C375 350 481 279 481 210 C481 101 384 -6 286 -6 C190 -6 96 88 96 184 C96 266 163 368 239 406 L240 407 L240 407 Z M234 409 C134 364 44 260 44 183 C44 85 164 -11 286 -11 C408 -11 528 86 528 184 C528 292 431 382 323 434 C417 475 501 565 501 631 C501 718 394 803 284 803 C175 803 69 710 69 615 C69 545 146 456 233 409 L234 409 L234 409 Z M317 437 C308 441 298 445 288 449 C201 484 116 572 116 638 C116 720 200 800 286 800 C368 800 449 714 449 626 C449 558 387 472 317 437 L317 437 Z " />
<glyph glyph-name="nine" unicode="9" horiz-adv-x="594" d="M17 -250 C280 -250 538 -7 538 240 C538 399 414 554 287 554 C168 554 52 424 52 291 C52 165 173 42 297 42 C363 42 428 91 463 156 C409 -58 214 -241 15 -241 L17 -250 L17 -250 Z M478 272 C478 159 389 48 299 48 C205 48 112 167 112 288 C112 420 199 549 288 549 C384 549 478 412 478 272 L478 272 Z " />
<glyph glyph-name="colon" unicode="&#x3a;" horiz-adv-x="135" d="M125 429 C146 429 167 450 167 471 C167 493 146 514 125 514 C104 514 83 493 83 471 C83 450 104 429 125 429 L125 429 Z M125 -5 C146 -5 167 16 167 37 C167 59 146 80 125 80 C104 80 83 59 83 37 C83 16 104 -5 125 -5 L125 -5 Z " />
<glyph glyph-name="semicolon" unicode="&#x3b;" horiz-adv-x="259" d="M125 429 C146 429 167 450 167 471 C167 493 146 514 125 514 C104 514 83 493 83 471 C83 450 104 429 125 429 L125 429 Z M172 37 C195 -36 135 -107 65 -107 L65 -111 C128 -111 189 -51 189 10 C189 39 179 68 165 88 C155 103 140 114 125 114 C95 114 65 84 65 54 C65 24 95 -6 125 -6 C145 -6 165 13 172 36 L172 37 L172 37 Z " />
<glyph glyph-name="equal" unicode="&#x3d;" horiz-adv-x="556" d="M79 235 L79 209 L486 209 L486 235 L79 235 L79 235 Z M79 335 L79 309 L486 309 L486 335 L79 335 L79 335 Z " />
<glyph glyph-name="question" unicode="&#x3f;" horiz-adv-x="303" d="M125 -5 C146 -5 167 16 167 37 C167 59 146 80 125 80 C104 80 83 59 83 37 C83 16 104 -5 125 -5 L125 -5 Z M122 196 C122 196 123 380 125 381 C198 381 251 429 282 477 C297 500 311 554 311 586 C311 697 229 805 145 805 C116 805 88 783 88 760 C88 745 104 730 121 730 C133 730 155 741 167 741 C231 741 293 661 293 579 C293 561 281 525 269 506 C248 473 198 441 104 441 C108 442 112 196 112 196 L122 196 L122 196 Z " />
<glyph glyph-name="at" unicode="&#x40;" horiz-adv-x="1185" d="M1083 0 C1027 -121 787 -239 599 -239 C348 -239 102 18 102 281 C102 543 345 800 593 800 C840 800 1083 589 1083 373 C1083 187 987 5 889 5 C792 5 721 110 746 218 L816 522 L759 522 L736 423 C719 483 659 534 598 534 C450 534 305 376 305 214 C305 112 396 13 489 13 C560 13 646 80 685 158 C695 64 777 -15 878 -15 C1005 -15 1130 177 1130 373 C1130 597 864 817 593 817 C321 817 55 552 55 281 C55 13 331 -250 613 -250 C802 -250 1044 -126 1103 0 L1083 0 L1083 0 Z M728 387 L689 218 C669 131 585 45 520 45 C445 45 371 134 371 224 C371 371 483 516 597 516 C663 516 728 453 729 387 L728 387 L728 387 Z " />
<glyph glyph-name="A" unicode="A" horiz-adv-x="644" d="M440 0 L644 0 L644 3 L637 3 C618 3 584 53 568 103 C494 340 420 577 347 814 L340 814 C343 797 318 776 289 772 L292 762 L87 103 C71 52 20 3 -16 3 L-29 3 L-29 0 L146 0 L146 3 L133 3 C97 3 77 53 93 103 L93 103 L157 311 L430 311 L496 94 C506 47 486 4 452 4 L439 4 L440 0 L440 0 Z M158 318 L293 757 L427 318 L158 318 L158 318 Z " />
<glyph glyph-name="B" unicode="B" horiz-adv-x="634" d="M286 2 L236 2 C204 2 173 18 173 34 L173 408 C239 408 304 408 304 407 C412 407 517 308 517 206 C517 67 403 2 286 2 L286 2 Z M293 0 C445 0 594 66 594 206 C594 309 458 410 320 411 C455 428 575 515 575 603 C575 699 478 794 269 794 L102 794 L102 0 L293 0 L293 0 Z M271 411 L173 411 L173 790 L261 790 C427 790 505 693 505 595 C505 502 389 411 271 411 L271 411 Z " />
<glyph glyph-name="C" unicode="C" horiz-adv-x="748" d="M703 60 L703 173 L690 173 C677 133 624 76 581 50 L581 50 C528 17 465 -5 401 -5 C267 -5 135 194 135 397 C135 600 272 799 412 799 C471 799 528 777 578 745 C578 745 661 685 685 633 C686 630 690 623 691 620 L704 620 L704 731 L699 731 C699 727 698 721 698 717 C696 701 667 706 638 727 L638 727 C579 771 501 804 411 804 C233 804 59 603 59 397 C59 191 228 -10 400 -10 C493 -10 580 23 641 67 L641 67 C668 87 697 90 698 74 C698 70 699 64 699 60 L703 60 L703 60 Z M695 136 L695 136 L695 136 L695 136 Z " />
<glyph glyph-name="D" unicode="D" horiz-adv-x="806" d="M257 4 C193 4 173 19 173 34 L173 790 L292 790 C504 790 673 595 673 397 C673 179 467 4 257 4 L257 4 Z M264 0 C510 0 751 176 751 397 C751 597 555 794 309 794 L102 794 L102 0 L264 0 L264 0 Z " />
<glyph glyph-name="E" unicode="E" horiz-adv-x="582" d="M535 0 C535 4 547 71 549 79 L540 79 L535 67 C522 35 459 4 406 4 L207 4 C181 4 173 18 173 33 L173 407 L344 407 C384 407 430 371 437 335 L440 322 L449 322 L449 407 L450 407 L450 412 L449 412 L449 497 L440 497 L437 484 C430 448 384 412 344 412 L173 412 L173 788 L405 788 C446 788 496 752 507 716 L512 703 L521 703 C518 725 513 769 510 791 L510 793 L102 793 L102 -1 L535 0 L535 0 Z " />
<glyph glyph-name="F" unicode="F" horiz-adv-x="557" d="M430 498 L427 485 C420 449 374 413 334 413 L173 413 L173 790 L404 790 C445 790 495 754 506 718 L511 705 L520 705 C517 726 512 767 509 790 L510 790 L510 794 L102 794 L102 0 L173 0 L173 408 L334 408 C374 408 420 372 427 336 L430 323 L439 323 L439 408 L440 408 L440 413 L439 413 L439 498 L430 498 L430 498 Z " />
<glyph glyph-name="G" unicode="G" horiz-adv-x="775" d="M703 620 L703 731 L698 731 C698 727 697 721 697 717 C695 701 666 706 637 727 L637 727 C578 771 500 804 410 804 C232 804 58 603 58 397 C58 191 228 -10 402 -10 C535 -10 681 26 759 62 L757 65 C738 56 713 47 684 39 L684 344 L613 344 L613 256 C614 256 615 96 615 87 C605 45 511 5 414 5 C273 5 135 200 135 398 C135 601 272 800 412 800 C471 800 528 778 578 746 C578 746 661 686 685 634 C686 631 690 624 691 621 L703 620 L703 620 Z M566 16 C518 9 466 5 414 5 C446 5 517 11 565 16 L566 16 L566 16 Z " />
<glyph glyph-name="H" unicode="H" horiz-adv-x="762" d="M668 0 L668 794 L597 794 L597 411 L209 411 L209 794 L138 794 L138 0 L209 0 L209 405 L597 405 L597 0 L668 0 L668 0 Z " />
<glyph glyph-name="I" unicode="I" horiz-adv-x="269" d="M175 0 L175 794 L104 794 L104 0 L175 0 L175 0 Z " />
<glyph glyph-name="J" unicode="J" horiz-adv-x="269" d="M104 -45 C104 -163 23 -212 -22 -212 C-51 -212 -46 -155 -75 -155 C-91 -155 -107 -171 -107 -187 C-107 -204 -67 -220 -27 -220 C44 -220 175 -129 175 89 L175 794 L104 794 L104 -45 L104 -45 Z " />
<glyph glyph-name="K" unicode="K" horiz-adv-x="668" d="M666 3 C646 3 617 21 591 46 L230 439 L492 732 C526 767 568 791 599 791 L599 794 L413 794 L413 791 L429 791 C472 791 472 741 428 691 L428 691 L173 397 L173 794 L102 794 L102 0 L173 0 L173 397 L539 0 L666 0 L666 3 L666 3 Z " />
<glyph glyph-name="L" unicode="L" horiz-adv-x="567" d="M209 12 C183 12 175 23 175 34 L175 794 L104 794 L104 0 L543 0 C543 23 553 64 557 86 L548 86 L543 74 C530 42 467 11 414 11 L209 12 L209 12 Z " />
<glyph glyph-name="M" unicode="M" horiz-adv-x="806" d="M772 794 L669 794 L430 91 L168 794 L50 794 L50 791 C70 791 92 770 104 742 C97 512 92 281 85 52 C84 27 69 2 55 2 L49 2 L49 -1 L144 -1 L144 2 L138 2 C123 2 110 27 110 52 L122 697 C215 464 307 231 400 -1 L418 -1 L419 4 L672 727 L689 45 C687 18 675 2 656 2 L656 -1 L796 -1 L796 2 L790 2 C776 2 761 27 760 52 L760 52 L741 749 C743 775 755 790 774 790 L772 794 L772 794 Z " />
<glyph glyph-name="N" unicode="N" horiz-adv-x="704" d="M54 0 L146 0 L146 3 L140 3 C125 3 111 28 111 53 L111 53 L109 690 C270 460 430 229 591 -1 L605 -1 L610 740 L610 740 C610 765 625 790 639 790 L645 790 L645 793 L589 793 L589 740 L589 740 L591 130 L582 143 L124 793 L3 793 L3 790 C25 790 52 769 73 740 L90 716 L89 52 L89 52 C89 27 75 2 60 2 L54 2 L54 0 L54 0 Z " />
<glyph glyph-name="O" unicode="O" horiz-adv-x="852" d="M135 397 C135 600 277 799 422 799 C572 799 720 600 720 397 C720 194 569 -5 414 -5 C273 -5 135 194 135 397 L135 397 Z M58 397 C58 191 234 -10 413 -10 C607 -10 797 191 797 397 C797 603 612 804 423 804 C239 804 58 603 58 397 L58 397 Z " />
<glyph glyph-name="P" unicode="P" horiz-adv-x="583" d="M190 0 L190 371 L247 371 C407 371 563 455 563 572 C563 684 434 794 303 794 L120 794 L120 0 L190 0 L190 0 Z M190 386 L190 782 L285 782 C392 782 497 684 497 584 C497 469 373 386 247 386 L190 386 L190 386 Z " />
<glyph glyph-name="Q" unicode="Q" horiz-adv-x="847" d="M1180 -51 L1179 -50 C1154 -71 994 -91 856 -91 C681 -91 448 -49 370 -6 C384 -9 399 -10 414 -10 C608 -10 798 191 798 397 C798 603 613 804 424 804 C240 804 59 603 59 397 C59 233 171 72 307 14 L307 14 C421 -63 690 -138 850 -138 C965 -138 1129 -94 1182 -50 L1180 -51 L1180 -51 Z M137 398 C137 601 279 800 424 800 C574 800 722 601 722 398 C722 193 568 -7 410 -7 C272 -7 137 193 137 398 L137 398 Z " />
<glyph glyph-name="R" unicode="R" horiz-adv-x="673" d="M663 0 C600 0 579 12 554 64 C484 208 415 350 394 393 C487 415 564 483 564 571 C564 684 448 794 329 794 L103 794 L103 0 L174 0 L174 385 L325 385 C340 345 407 199 472 65 C497 13 534 1 664 1 L663 0 L663 0 Z M174 403 L174 781 L308 781 C398 781 486 684 486 586 C486 480 408 403 329 403 L174 403 L174 403 Z " />
<glyph glyph-name="S" unicode="S" horiz-adv-x="574" d="M260 804 C164 804 70 706 70 606 C70 534 169 418 293 360 C395 312 477 226 477 176 C477 86 396 -3 314 -3 C270 -3 215 21 167 57 C131 86 86 145 71 182 C70 186 66 192 65 196 L52 196 L52 59 L57 59 C57 64 58 74 58 79 C59 101 89 99 117 75 L117 75 C174 26 252 -10 314 -10 C425 -10 534 92 534 197 C534 270 446 383 335 434 C219 488 126 582 126 633 C126 717 192 799 260 799 C292 799 329 788 363 770 L363 770 C403 749 458 692 473 654 C474 650 478 644 479 640 L492 640 L492 741 L487 741 C487 738 486 733 486 730 C485 718 462 723 441 739 L441 739 C399 771 327 805 260 805 L260 804 L260 804 Z " />
<glyph glyph-name="T" unicode="T" horiz-adv-x="801" d="M54 792 C55 793 55 794 55 794 L54 792 L54 792 Z M51 785 C52 786 53 788 53 789 L51 785 L51 785 Z M780 701 C772 722 755 764 747 785 L747 794 L55 794 L55 780 C46 758 31 720 24 700 L33 700 L41 712 C61 744 122 775 165 775 L366 775 L366 -1 L437 -1 L437 775 L640 775 C683 775 744 744 764 712 L772 700 L780 701 L780 701 Z M748 793 L749 793 C749 793 752 786 752 784 L748 793 L748 793 Z " />
<glyph glyph-name="U" unicode="U" horiz-adv-x="648" d="M549 0 C558 2 575 7 584 9 L584 794 L514 794 L514 188 C478 111 359 36 273 36 C205 36 138 131 138 228 L138 794 L67 794 L67 228 C67 108 155 -10 244 -10 C341 -10 475 72 514 156 L514 0 L549 0 L549 0 Z " />
<glyph glyph-name="V" unicode="V" horiz-adv-x="704" d="M688 794 L522 794 L522 791 L537 791 C579 791 603 741 584 691 L584 691 L364 90 L147 692 C130 741 147 790 183 790 L196 790 L196 793 L5 793 L5 790 L9 790 C20 790 48 740 67 690 L67 690 C154 456 241 222 328 -12 L342 -12 L617 703 C637 748 669 789 684 789 L689 789 L688 794 L688 794 Z " />
<glyph glyph-name="W" unicode="W" horiz-adv-x="1050" d="M627 794 L440 794 L440 791 L445 791 C457 791 479 759 493 724 C514 659 537 593 558 529 L369 86 C299 294 229 503 159 711 C145 751 157 791 182 791 L191 791 L191 794 L29 794 L29 791 L33 791 C43 791 67 751 81 711 L81 711 C163 471 246 231 327 -10 L345 -10 L568 498 L737 -10 L755 -10 L973 717 C986 755 1015 791 1033 791 L1040 791 L1040 794 L874 794 L874 791 L888 791 C928 791 957 751 945 711 L768 98 L571 719 C563 756 583 791 615 791 L627 791 L627 794 L627 794 Z " />
<glyph glyph-name="X" unicode="X" horiz-adv-x="714" d="M694 794 L545 794 L545 791 L563 791 C589 791 599 767 585 741 L376 434 L182 738 C166 765 171 791 193 791 L201 791 L201 794 L44 794 L44 791 C57 791 80 766 99 736 L99 736 L325 381 L93 50 C70 21 40 2 15 2 L15 -1 L162 -1 L162 2 L144 2 C117 2 108 27 124 54 L335 366 L534 55 C550 28 545 2 523 2 L515 2 L515 -1 L672 -1 L672 2 C659 2 636 27 617 57 L380 428 C457 530 533 633 610 735 C634 766 670 790 696 790 L694 794 L694 794 Z " />
<glyph glyph-name="Y" unicode="Y" horiz-adv-x="661" d="M173 794 L17 794 L17 791 C29 791 46 772 64 745 L302 347 L302 0 L373 0 L373 357 L584 744 C603 773 629 791 654 791 L654 794 L526 794 L526 791 L544 791 C572 791 585 764 571 736 L372 363 L152 738 C138 765 144 791 166 791 L174 791 L173 794 L173 794 Z " />
<glyph glyph-name="Z" unicode="Z" horiz-adv-x="654" d="M61 699 L70 699 L74 711 C84 743 146 773 198 775 L561 779 L25 14 L25 0 L633 0 L638 21 L638 21 L655 96 L646 96 L640 84 C626 52 560 22 508 20 L108 15 L637 780 L637 794 L70 794 C67 764 65 742 61 699 L61 699 Z " />
<glyph glyph-name="bracketleft" unicode="&#x5b;" horiz-adv-x="288" d="M128 776 L338 776 L338 794 L107 794 L107 -195 L338 -195 L338 -177 L128 -177 L128 776 L128 776 Z " />
<glyph glyph-name="backslash" unicode="&#x5c;" horiz-adv-x="340" d="M34 814 L294 -80 L330 -80 L70 814 L34 814 L34 814 Z " />
<glyph glyph-name="bracketright" unicode="&#x5d;" horiz-adv-x="291" d="M160 776 L160 -177 L-50 -177 L-50 -195 L181 -195 L181 794 L-50 794 L-50 776 L160 776 L160 776 Z " />
<glyph glyph-name="asciicircum" unicode="&#x5e;" horiz-adv-x="373" d="M208 806 C205 811 193 827 187 827 C181 827 168 811 165 806 L37 608 L45 601 L187 761 L328 601 L336 608 L208 806 L208 806 Z " />
<glyph glyph-name="underscore" unicode="&#x5f;" horiz-adv-x="515" d="M5 -50 L5 -83 L510 -83 L510 -50 L5 -50 L5 -50 Z " />
<glyph glyph-name="grave" unicode="&#x60;" horiz-adv-x="373" d="M-18 796 C-18 791 16 758 50 729 L190 607 L197 615 L77 757 C48 792 17 826 12 826 C-2 826 -18 810 -18 796 L-18 796 Z " />
<glyph glyph-name="a" unicode="a" horiz-adv-x="539" d="M549 85 L542 89 C537 63 508 38 482 38 C454 38 427 62 427 87 L427 389 C427 485 353 554 277 554 C173 554 71 449 71 404 C71 383 86 362 102 362 C120 362 137 381 137 392 C137 405 117 432 117 443 C117 475 193 548 271 548 C319 548 367 491 367 411 C367 411 367 355 367 290 C152 251 52 198 52 90 C52 40 113 -10 175 -10 C217 -10 299 28 366 87 C366 41 412 -5 458 -5 C496 -5 541 40 549 85 L549 85 Z M366 286 C366 205 366 111 366 91 C316 49 246 22 205 22 C157 22 110 59 110 97 C110 205 191 255 365 286 L366 286 L366 286 Z " />
<glyph glyph-name="b" unicode="b" horiz-adv-x="526" d="M10 777 L13 777 C19 775 25 752 25 729 L25 125 L23 125 C24 123 25 121 26 119 L26 75 L26 0 L29 0 L54 75 L55 75 C99 28 178 -10 247 -10 C366 -10 482 131 482 274 C482 413 362 549 240 549 C204 549 131 507 86 462 L86 795 L56 795 C45 792 22 786 11 783 L10 777 L10 777 Z M86 112 L86 452 C126 492 190 529 221 529 C319 529 415 399 415 267 C415 132 333 -1 249 -1 C189 -1 112 53 86 112 L86 112 Z " />
<glyph glyph-name="c" unicode="c" horiz-adv-x="509" d="M479 136 L477 137 C451 71 355 6 282 6 C193 6 106 146 106 288 C106 420 197 550 290 550 C337 550 400 500 419 449 C425 434 439 419 449 419 C470 419 485 434 479 449 C460 502 367 554 292 554 C167 554 45 407 45 258 C45 123 158 -10 273 -10 C348 -10 450 62 479 136 L479 136 Z " />
<glyph glyph-name="d" unicode="d" horiz-adv-x="570" d="M521 62 L521 794 L491 794 L491 795 C479 792 457 786 445 783 L445 778 L448 778 C454 776 460 753 460 730 L460 448 C427 502 361 553 310 553 C163 553 45 415 45 274 C45 133 163 -6 283 -6 C342 -6 427 32 460 72 L460 -1 L491 -1 C498 3 511 7 521 7 L521 60 L521 62 L521 62 Z M460 407 L460 79 C433 48 361 19 308 19 C206 19 107 154 107 291 C107 414 200 535 317 535 C369 535 442 465 460 407 L460 407 Z " />
<glyph glyph-name="e" unicode="e" horiz-adv-x="569" d="M120 370 L539 370 C528 482 420 554 317 554 C180 554 45 436 45 255 C45 121 167 -10 292 -10 C385 -10 500 66 524 143 L521 143 C500 75 389 8 298 8 C202 8 108 142 108 279 C108 312 112 342 119 370 L120 370 L120 370 Z M471 375 L120 374 C151 483 233 550 316 550 C385 550 459 481 472 375 L471 375 L471 375 Z " />
<glyph glyph-name="f" unicode="f" horiz-adv-x="321" d="M136 0 L136 512 L311 512 L311 544 L136 544 C136 663 195 780 268 780 C307 780 364 679 397 679 C420 679 442 701 442 724 C442 762 366 799 289 799 C171 799 76 673 76 544 L-24 519 L-24 512 L76 512 L76 0 L136 0 L136 0 Z " />
<glyph glyph-name="g" unicode="g" horiz-adv-x="547" d="M566 495 C566 514 547 532 528 532 C494 532 451 501 432 466 C397 516 335 553 272 553 C176 553 81 467 81 380 C81 301 157 223 242 207 C145 200 58 158 58 115 C58 68 109 23 167 13 C106 -6 51 -56 51 -95 C51 -164 165 -231 282 -231 C398 -231 512 -154 512 -76 C512 -2 435 71 316 71 L193 71 C143 71 93 102 93 133 C93 169 182 204 272 204 C368 204 462 291 462 380 C462 408 452 436 436 461 C449 479 472 493 492 493 C504 493 529 468 541 468 C554 468 566 481 566 494 L566 495 L566 495 Z M272 208 C206 208 141 293 141 380 C141 465 206 549 272 549 C337 549 401 465 401 380 C401 293 337 208 272 208 L272 208 Z M173 12 C179 11 185 11 191 11 L311 11 C403 11 463 -39 463 -91 C463 -160 374 -227 284 -227 C192 -227 101 -154 101 -80 C101 -45 135 -4 174 13 L173 12 L173 12 Z " />
<glyph glyph-name="h" unicode="h" horiz-adv-x="480" d="M25 777 L28 777 C34 775 40 752 40 729 L40 0 L100 0 L100 417 C137 465 220 512 267 512 C328 512 376 456 376 399 L376 0 L436 0 L436 399 C436 477 376 554 302 554 C252 554 152 489 100 423 L100 794 L70 794 C59 791 36 785 25 782 L25 777 L25 777 Z " />
<glyph glyph-name="i" unicode="i" horiz-adv-x="154" d="M80 659 C100 659 119 678 119 698 C119 718 100 737 80 737 C60 737 41 718 41 698 C41 678 60 659 80 659 L80 659 Z M35 527 L38 527 C44 525 50 502 50 479 L50 0 L110 0 L110 544 L80 544 C69 541 46 535 35 532 L35 527 L35 527 Z " />
<glyph glyph-name="j" unicode="j" horiz-adv-x="195" d="M75 659 C95 659 114 678 114 698 C114 718 95 737 75 737 C55 737 36 718 36 698 C36 678 55 659 75 659 L75 659 Z M30 527 L33 527 C39 525 45 502 45 479 L45 35 C45 -33 24 -112 2 -125 C-26 -125 -82 -100 -110 -100 C-133 -100 -155 -120 -155 -140 C-155 -165 -125 -187 -95 -185 C-90 -185 -38 -157 10 -130 C58 -102 105 -21 105 35 L105 544 L75 544 C64 541 41 535 30 532 L30 527 L30 527 Z " />
<glyph glyph-name="k" unicode="k" horiz-adv-x="435" d="M25 777 L28 777 C34 775 40 752 40 729 L40 0 L100 0 L100 305 L327 35 C341 17 350 3 342 3 L342 0 L436 0 C435 1 434 3 432 4 L154 337 L336 483 C379 516 422 541 443 541 L443 544 L272 544 L272 541 L293 541 C347 541 328 488 269 441 L100 305 L100 794 L70 794 C59 791 36 785 25 782 L25 777 L25 777 Z " />
<glyph glyph-name="l" unicode="l" horiz-adv-x="144" d="M25 777 L28 777 C34 775 40 752 40 729 L40 0 L100 0 L100 794 L70 794 C59 791 36 785 25 782 L25 777 L25 777 Z " />
<glyph glyph-name="m" unicode="m" horiz-adv-x="800" d="M25 527 L28 527 C34 525 40 502 40 479 L40 0 L100 0 L100 422 C134 466 212 509 256 509 C324 509 368 455 368 399 L368 0 L428 0 L428 399 C428 408 427 417 426 425 C461 468 538 509 584 509 C652 509 696 455 696 399 L696 0 L756 0 L756 399 C756 477 698 554 608 554 C565 554 475 493 425 429 C412 495 358 553 280 553 C239 553 150 491 100 427 L100 543 L70 543 C59 540 36 534 25 531 L25 527 L25 527 Z " />
<glyph glyph-name="n" unicode="n" horiz-adv-x="472" d="M25 527 L28 527 C34 525 40 502 40 479 L40 0 L100 0 L100 409 C145 467 225 523 261 523 C320 523 368 446 368 367 L368 0 L428 0 L428 367 C428 461 362 554 280 554 C242 554 153 487 100 419 L100 544 L70 544 C59 541 36 535 25 532 L25 527 L25 527 Z " />
<glyph glyph-name="o" unicode="o" horiz-adv-x="633" d="M111 272 C111 411 213 548 317 548 C421 548 522 411 522 272 C522 133 421 -4 317 -4 C213 -4 111 133 111 272 L111 272 Z M45 272 C45 130 180 -10 317 -10 C454 -10 588 130 588 272 C588 414 454 554 317 554 C180 554 45 414 45 272 L45 272 Z " />
<glyph glyph-name="p" unicode="p" horiz-adv-x="531" d="M10 527 L13 527 C19 525 25 502 25 479 L25 -220 L85 -220 L85 55 C124 20 175 -5 219 -5 C354 -5 486 149 486 277 C486 417 367 554 245 554 C188 554 114 516 85 474 L85 544 L55 544 C44 541 21 535 10 532 L10 527 L10 527 Z M85 137 L85 451 C112 492 173 529 218 529 C320 529 420 395 420 258 C420 145 322 10 223 10 C173 10 105 73 85 137 L85 137 Z " />
<glyph glyph-name="q" unicode="q" horiz-adv-x="531" d="M512 -220 L512 544 L508 544 L489 484 L477 473 C434 518 361 553 298 553 C152 553 35 415 35 274 C35 133 156 -6 280 -6 C348 -6 426 26 452 61 L452 -221 L512 -220 L512 -220 Z M452 431 L452 82 C429 49 364 19 307 19 C202 19 100 154 100 291 C100 416 188 539 297 539 C355 539 427 487 452 431 L452 431 Z " />
<glyph glyph-name="r" unicode="r" horiz-adv-x="361" d="M26 527 L29 527 C35 525 41 502 41 479 L41 0 L101 0 L101 413 C133 471 198 526 237 526 C259 526 280 509 280 491 C280 473 298 456 316 456 C334 456 351 473 351 491 C351 523 308 554 265 554 C216 554 137 490 101 423 L101 544 L71 544 C60 541 37 535 26 532 L26 527 L26 527 Z " />
<glyph glyph-name="s" unicode="s" horiz-adv-x="450" d="M373 432 L373 496 L370 496 C370 494 369 492 369 490 C369 490 293 533 277 541 L276 540 C252 549 227 555 205 555 C132 555 60 489 60 421 C60 365 133 283 225 250 C296 224 353 162 353 119 C353 56 296 -5 238 -5 C212 -5 180 8 151 28 C124 48 84 96 66 129 C65 130 64 134 63 135 L59 135 L59 60 L63 60 L63 68 C64 73 92 58 120 37 C156 10 201 -8 238 -8 C319 -8 399 63 399 136 C399 190 333 267 251 297 C169 327 103 396 103 443 C103 498 153 552 205 552 C226 552 250 545 273 533 C302 517 348 472 365 439 C366 438 367 434 368 433 L373 432 L373 432 Z " />
<glyph glyph-name="t" unicode="t" horiz-adv-x="367" d="M325 544 L159 544 L159 675 L154 675 L33 531 L33 521 L98 521 L98 150 C98 53 162 -10 228 -10 C269 -10 333 36 357 83 L350 87 C333 53 281 19 246 19 C201 19 157 65 157 137 L159 512 L325 512 L325 544 L325 544 Z " />
<glyph glyph-name="u" unicode="u" horiz-adv-x="475" d="M436 62 L436 544 L406 544 L406 545 L375 545 L375 134 C347 81 271 33 211 33 C153 33 96 100 96 168 L96 545 L36 545 L36 168 C36 79 109 -9 183 -9 C251 -9 341 57 375 128 L375 1 L406 1 C413 5 426 9 436 9 L436 62 L436 62 Z " />
<glyph glyph-name="v" unicode="v" horiz-adv-x="458" d="M100 544 L6 544 L6 541 C15 541 24 524 34 499 L197 -10 L215 -10 L396 492 C407 520 419 541 429 541 L429 544 L372 544 L372 541 L374 541 C380 541 377 514 367 486 L367 486 L231 89 C189 221 146 354 105 486 C96 514 93 541 99 541 L101 541 L100 544 L100 544 Z " />
<glyph glyph-name="w" unicode="w" horiz-adv-x="710" d="M102 544 L6 544 L6 541 C16 541 27 519 37 490 L191 -10 L209 -10 L340 345 L445 -10 L463 -10 C524 155 584 321 646 486 C657 517 671 541 681 541 L681 544 L624 544 L624 541 L626 541 C631 541 630 521 623 498 L481 94 L363 492 C356 518 355 541 361 541 L363 541 L363 544 L267 544 L267 541 C276 541 290 516 298 486 L298 486 C308 451 319 416 329 381 L227 92 L105 486 C96 514 94 541 100 541 L102 541 L102 544 L102 544 Z " />
<glyph glyph-name="x" unicode="x" horiz-adv-x="472" d="M433 544 L377 544 L377 541 L379 541 C384 541 376 521 363 497 L244 308 L128 493 C114 518 105 540 110 540 L112 540 L112 543 L10 543 L10 540 C19 540 41 514 59 485 L59 485 L202 257 C153 190 105 123 55 57 C34 28 10 2 1 2 L1 -1 L55 -1 L55 2 L53 2 C48 2 62 29 81 57 L81 57 L211 243 L334 47 C349 21 359 1 350 1 L350 -2 L451 -2 L451 1 C442 1 420 27 402 56 L402 56 L255 291 L394 500 C411 523 425 538 434 538 L433 544 L433 544 Z " />
<glyph glyph-name="y" unicode="y" horiz-adv-x="478" d="M457 544 L400 544 L400 541 L402 541 C408 541 405 516 397 489 C352 356 311 220 264 90 L115 485 C104 513 100 540 106 540 L108 540 L108 543 L15 543 L15 540 C23 540 35 522 46 497 L232 1 C212 -53 192 -107 172 -161 C166 -178 150 -195 145 -195 C126 -195 114 -173 95 -173 C74 -173 53 -194 53 -215 C53 -238 76 -261 100 -261 C119 -261 170 -215 187 -169 L245 -11 C305 158 365 327 425 496 C436 522 447 540 457 540 L457 544 L457 544 Z " />
<glyph glyph-name="z" unicode="z" horiz-adv-x="502" d="M64 544 L60 529 L46 476 L57 476 L62 483 C74 502 126 522 168 524 L390 528 L39 13 L39 -1 L456 -1 L456 9 L459 9 L465 67 L454 67 L450 60 C440 41 392 21 350 18 L113 14 L461 529 L461 543 L67 543 L67 533 L61 533 L64 543 L64 544 L64 544 Z M59 527 L58 525 L59 527 L59 527 Z " />
<glyph glyph-name="braceleft" unicode="&#x7b;" horiz-adv-x="262" d="M257 794 L217 794 C147 794 78 729 78 663 L78 405 C78 369 50 334 21 334 L15 334 L15 330 L21 330 C50 330 78 287 78 243 L78 1 C78 -65 147 -130 217 -130 L257 -130 L257 -127 L221 -127 C173 -127 125 -64 125 1 L125 210 C125 272 75 332 25 332 C75 332 125 385 125 439 L124 663 C124 728 172 791 221 791 L257 791 L257 794 L257 794 Z " />
<glyph glyph-name="bar" unicode="&#x7c;" horiz-adv-x="167" d="M60 844 L60 -250 L107 -250 L107 844 L60 844 L60 844 Z " />
<glyph glyph-name="braceright" unicode="&#x7d;" horiz-adv-x="262" d="M5 794 L5 791 L41 791 C90 791 138 728 138 663 L137 439 C137 385 187 332 237 332 C187 332 137 272 137 210 L137 1 C137 -64 89 -127 41 -127 L5 -127 L5 -130 L45 -130 C115 -130 184 -65 184 1 L184 243 C184 287 212 330 241 330 L247 330 L247 334 L241 334 C212 334 184 369 184 405 L184 663 C184 729 115 794 45 794 L5 794 L5 794 Z " />
<glyph glyph-name="asciitilde" unicode="&#x7e;" horiz-adv-x="373" d="M25 332 C25 364 51 396 77 396 C128 396 229 331 280 331 C316 331 352 382 352 434 L348 434 C348 404 321 374 293 374 C242 374 142 439 91 439 C56 439 22 386 22 332 L25 332 L25 332 Z " />
<glyph glyph-name="exclamdown" unicode="&#xa1;" horiz-adv-x="214" d="M107 549 C86 549 65 528 65 507 C65 485 86 464 107 464 C128 464 149 485 149 507 C149 528 128 549 107 549 L107 549 Z M107 -255 C131 -255 147 -210 144 -165 C144 -165 113 195 113 316 L102 316 C102 195 70 -165 70 -165 C67 -210 83 -255 107 -255 L107 -255 Z " />
<glyph glyph-name="cent" unicode="&#xa2;" horiz-adv-x="509" d="M266 619 L266 552 C151 534 45 397 45 258 C45 126 153 -4 266 -9 L266 -74 L288 -74 L288 -8 C361 1 452 68 479 137 L477 138 C452 74 360 11 288 8 L288 552 C337 553 400 503 419 452 C425 437 439 422 449 422 C470 422 485 437 479 452 C460 506 365 559 288 557 L288 622 L266 619 L266 619 Z M266 10 C183 25 106 157 106 290 C106 411 182 530 266 550 L266 10 L266 10 Z " />
<glyph glyph-name="acute" unicode="&#xb4;" horiz-adv-x="373" d="M193 607 L333 729 C367 760 401 792 401 796 C401 810 385 826 371 826 C368 826 336 792 306 757 L186 615 L193 607 L193 607 Z " />
<glyph glyph-name="questiondown" unicode="&#xbf;" horiz-adv-x="303" d="M178 549 C157 549 136 528 136 507 C136 485 157 464 178 464 C199 464 220 485 220 507 C220 528 199 549 178 549 L178 549 Z M181 348 C181 348 180 164 178 163 C105 163 52 115 21 67 C6 44 -8 -10 -8 -42 C-8 -153 74 -261 158 -261 C187 -261 215 -239 215 -216 C215 -201 199 -186 182 -186 C170 -186 148 -197 136 -197 C72 -197 10 -117 10 -35 C10 -17 22 19 34 38 C55 71 105 103 199 103 C195 102 191 348 191 348 L181 348 L181 348 Z " />
<glyph glyph-name="Agrave" unicode="&#xc0;" horiz-adv-x="644" d="M440 0 L644 0 L644 3 L637 3 C618 3 584 53 568 103 C494 340 420 577 347 814 L340 814 C343 797 318 776 289 772 L292 762 L87 103 C71 52 20 3 -16 3 L-29 3 L-29 0 L146 0 L146 3 L133 3 C97 3 77 53 93 103 L93 103 L157 311 L430 311 L496 94 C506 47 486 4 452 4 L439 4 L440 0 L440 0 Z M119 1047 C119 1042 153 1009 187 980 L327 858 L334 866 L214 1008 C185 1043 154 1077 149 1077 C135 1077 119 1061 119 1047 L119 1047 Z M158 318 L293 757 L427 318 L158 318 L158 318 Z " />
<glyph glyph-name="Aacute" unicode="&#xc1;" horiz-adv-x="644" d="M331 857 L471 979 C505 1010 539 1042 539 1046 C539 1060 523 1076 509 1076 C506 1076 474 1042 444 1007 L324 865 L331 857 L331 857 Z M440 0 L644 0 L644 3 L637 3 C618 3 584 53 568 103 C494 340 420 577 347 814 L340 814 C343 797 318 776 289 772 L292 762 L87 103 C71 52 20 3 -16 3 L-29 3 L-29 0 L146 0 L146 3 L133 3 C97 3 77 53 93 103 L93 103 L157 311 L430 311 L496 94 C506 47 486 4 452 4 L439 4 L440 0 L440 0 Z M158 318 L293 757 L427 318 L158 318 L158 318 Z " />
<glyph glyph-name="Acircumflex" unicode="&#xc2;" horiz-adv-x="644" d="M440 0 L644 0 L644 3 L637 3 C618 3 584 53 568 103 C494 340 420 577 347 814 L340 814 C343 797 318 776 289 772 L292 762 L87 103 C71 52 20 3 -16 3 L-29 3 L-29 0 L146 0 L146 3 L133 3 C97 3 77 53 93 103 L93 103 L157 311 L430 311 L496 94 C506 47 486 4 452 4 L439 4 L440 0 L440 0 Z M345 1057 C342 1062 330 1078 324 1078 C318 1078 305 1062 302 1057 L174 859 L182 852 L324 1012 L465 852 L473 859 L345 1057 L345 1057 Z M158 318 L293 757 L427 318 L158 318 L158 318 Z " />
<glyph glyph-name="Atilde" unicode="&#xc3;" horiz-adv-x="644" d="M163 914 C163 946 189 978 215 978 C266 978 366 913 417 913 C454 913 490 964 490 1016 L486 1016 C486 986 458 956 430 956 C379 956 280 1021 229 1021 C194 1021 159 968 159 914 L163 914 L163 914 Z M440 0 L644 0 L644 3 L637 3 C618 3 584 53 568 103 C494 340 420 577 347 814 L340 814 C343 797 318 776 289 772 L292 762 L87 103 C71 52 20 3 -16 3 L-29 3 L-29 0 L146 0 L146 3 L133 3 C97 3 77 53 93 103 L93 103 L157 311 L430 311 L496 94 C506 47 486 4 452 4 L439 4 L440 0 L440 0 Z M158 318 L293 757 L427 318 L158 318 L158 318 Z " />
<glyph glyph-name="Adieresis" unicode="&#xc4;" horiz-adv-x="644" d="M397 909 C416 909 435 928 435 948 C435 968 416 987 397 987 C377 987 358 968 358 948 C358 928 377 909 397 909 L397 909 Z M252 909 C272 909 291 928 291 948 C291 968 272 987 252 987 C233 987 214 968 214 948 C214 928 233 909 252 909 L252 909 Z M440 0 L644 0 L644 3 L637 3 C618 3 584 53 568 103 C494 340 420 577 347 814 L340 814 C343 797 318 776 289 772 L292 762 L87 103 C71 52 20 3 -16 3 L-29 3 L-29 0 L146 0 L146 3 L133 3 C97 3 77 53 93 103 L93 103 L157 311 L430 311 L496 94 C506 47 486 4 452 4 L439 4 L440 0 L440 0 Z M158 318 L293 757 L427 318 L158 318 L158 318 Z " />
<glyph glyph-name="Aring" unicode="&#xc5;" horiz-adv-x="644" d="M245 949 C245 990 285 1030 325 1030 C365 1030 404 990 404 949 C404 912 361 868 325 868 C289 868 245 912 245 949 L245 949 Z M228 949 C228 906 281 854 325 854 C369 854 421 906 421 949 C421 997 373 1044 325 1044 C276 1044 228 997 228 949 L228 949 Z M440 0 L644 0 L644 3 L637 3 C618 3 584 53 568 103 C494 340 420 577 347 814 L340 814 C343 797 318 776 289 772 L292 762 L87 103 C71 52 20 3 -16 3 L-29 3 L-29 0 L146 0 L146 3 L133 3 C97 3 77 53 93 103 L93 103 L157 311 L430 311 L496 94 C506 47 486 4 452 4 L439 4 L440 0 L440 0 Z M158 318 L293 757 L427 318 L158 318 L158 318 Z " />
<glyph glyph-name="Egrave" unicode="&#xc8;" horiz-adv-x="582" d="M101 1046 C101 1041 135 1008 169 979 L309 857 L317 865 L197 1007 C168 1042 136 1076 131 1076 C117 1076 101 1060 101 1046 L101 1046 Z M535 0 C535 4 547 71 549 79 L540 79 L535 67 C522 35 459 4 406 4 L207 4 C181 4 173 18 173 33 L173 407 L344 407 C384 407 430 371 437 335 L440 322 L449 322 L449 407 L450 407 L450 412 L449 412 L449 497 L440 497 L437 484 C430 448 384 412 344 412 L173 412 L173 788 L405 788 C446 788 496 752 507 716 L512 703 L521 703 C518 725 513 769 510 791 L510 793 L102 793 L102 -1 L535 0 L535 0 Z " />
<glyph glyph-name="Eacute" unicode="&#xc9;" horiz-adv-x="582" d="M313 857 L453 979 C487 1010 521 1042 521 1046 C521 1060 505 1076 491 1076 C487 1076 455 1042 425 1007 L305 865 L313 857 L313 857 Z M535 0 C535 4 547 71 549 79 L540 79 L535 67 C522 35 459 4 406 4 L207 4 C181 4 173 18 173 33 L173 407 L344 407 C384 407 430 371 437 335 L440 322 L449 322 L449 407 L450 407 L450 412 L449 412 L449 497 L440 497 L437 484 C430 448 384 412 344 412 L173 412 L173 788 L405 788 C446 788 496 752 507 716 L512 703 L521 703 C518 725 513 769 510 791 L510 793 L102 793 L102 -1 L535 0 L535 0 Z " />
<glyph glyph-name="Ecircumflex" unicode="&#xca;" horiz-adv-x="582" d="M327 1056 C324 1061 312 1077 306 1077 C300 1077 288 1061 285 1056 L156 858 L164 851 L306 1012 L448 851 L456 858 L327 1056 L327 1056 Z M535 0 C535 4 547 71 549 79 L540 79 L535 67 C522 35 459 4 406 4 L207 4 C181 4 173 18 173 33 L173 407 L344 407 C384 407 430 371 437 335 L440 322 L449 322 L449 407 L450 407 L450 412 L449 412 L449 497 L440 497 L437 484 C430 448 384 412 344 412 L173 412 L173 788 L405 788 C446 788 496 752 507 716 L512 703 L521 703 C518 725 513 769 510 791 L510 793 L102 793 L102 -1 L535 0 L535 0 Z " />
<glyph glyph-name="Edieresis" unicode="&#xcb;" horiz-adv-x="582" d="M378 909 C398 909 417 928 417 948 C417 968 398 987 378 987 C358 987 339 968 339 948 C339 928 358 909 378 909 L378 909 Z M234 909 C254 909 273 928 273 948 C273 968 254 987 234 987 C214 987 195 968 195 948 C195 928 214 909 234 909 L234 909 Z M535 0 C535 4 547 71 549 79 L540 79 L535 67 C522 35 459 4 406 4 L207 4 C181 4 173 18 173 33 L173 407 L344 407 C384 407 430 371 437 335 L440 322 L449 322 L449 407 L450 407 L450 412 L449 412 L449 497 L440 497 L437 484 C430 448 384 412 344 412 L173 412 L173 788 L405 788 C446 788 496 752 507 716 L512 703 L521 703 C518 725 513 769 510 791 L510 793 L102 793 L102 -1 L535 0 L535 0 Z " />
<glyph glyph-name="Igrave" unicode="&#xcc;" horiz-adv-x="269" d="M-65 1046 C-65 1041 -31 1008 3 979 L143 857 L151 865 L31 1007 C2 1042 -30 1076 -35 1076 C-49 1076 -65 1060 -65 1046 L-65 1046 Z M175 0 L175 794 L104 794 L104 0 L175 0 L175 0 Z " />
<glyph glyph-name="Iacute" unicode="&#xcd;" horiz-adv-x="269" d="M147 857 L287 979 C321 1010 355 1042 355 1046 C355 1060 339 1076 325 1076 C321 1076 289 1042 259 1007 L139 865 L147 857 L147 857 Z M175 0 L175 794 L104 794 L104 0 L175 0 L175 0 Z " />
<glyph glyph-name="Icircumflex" unicode="&#xce;" horiz-adv-x="269" d="M161 1056 C158 1061 146 1077 140 1077 C134 1077 122 1061 119 1056 L-10 858 L-2 851 L140 1012 L282 851 L290 858 L161 1056 L161 1056 Z M175 0 L175 794 L104 794 L104 0 L175 0 L175 0 Z " />
<glyph glyph-name="Idieresis" unicode="&#xcf;" horiz-adv-x="269" d="M212 909 C232 909 251 928 251 948 C251 968 232 987 212 987 C192 987 173 968 173 948 C173 928 192 909 212 909 L212 909 Z M68 909 C88 909 107 928 107 948 C107 968 88 987 68 987 C48 987 29 968 29 948 C29 928 48 909 68 909 L68 909 Z M175 0 L175 794 L104 794 L104 0 L175 0 L175 0 Z " />
<glyph glyph-name="Ntilde" unicode="&#xd1;" horiz-adv-x="704" d="M188 914 C188 946 214 978 240 978 C291 978 391 913 442 913 C479 913 515 964 515 1016 L511 1016 C511 986 483 956 455 956 C404 956 305 1021 254 1021 C219 1021 184 968 184 914 L188 914 L188 914 Z M54 0 L146 0 L146 3 L140 3 C125 3 111 28 111 53 L111 53 L109 690 C270 460 430 229 591 -1 L605 -1 L610 740 L610 740 C610 765 625 790 639 790 L645 790 L645 793 L589 793 L589 740 L589 740 L591 130 L582 143 L124 793 L3 793 L3 790 C25 790 52 769 73 740 L90 716 L89 52 L89 52 C89 27 75 2 60 2 L54 2 L54 0 L54 0 Z " />
<glyph glyph-name="Ograve" unicode="&#xd2;" horiz-adv-x="852" d="M135 397 C135 600 277 799 422 799 C572 799 720 600 720 397 C720 194 569 -5 414 -5 C273 -5 135 194 135 397 L135 397 Z M58 397 C58 191 234 -10 413 -10 C607 -10 797 191 797 397 C797 603 612 804 423 804 C239 804 58 603 58 397 L58 397 Z M218 1046 C218 1041 252 1008 286 979 L426 857 L434 865 L314 1007 C285 1042 253 1076 248 1076 C234 1076 218 1060 218 1046 L218 1046 Z " />
<glyph glyph-name="Oacute" unicode="&#xd3;" horiz-adv-x="852" d="M430 857 L570 979 C604 1010 638 1042 638 1046 C638 1060 622 1076 608 1076 C604 1076 572 1042 542 1007 L422 865 L430 857 L430 857 Z M135 397 C135 600 277 799 422 799 C572 799 720 600 720 397 C720 194 569 -5 414 -5 C273 -5 135 194 135 397 L135 397 Z M58 397 C58 191 234 -10 413 -10 C607 -10 797 191 797 397 C797 603 612 804 423 804 C239 804 58 603 58 397 L58 397 Z " />
<glyph glyph-name="Ocircumflex" unicode="&#xd4;" horiz-adv-x="852" d="M135 397 C135 600 277 799 422 799 C572 799 720 600 720 397 C720 194 569 -5 414 -5 C273 -5 135 194 135 397 L135 397 Z M58 397 C58 191 234 -10 413 -10 C607 -10 797 191 797 397 C797 603 612 804 423 804 C239 804 58 603 58 397 L58 397 Z M444 1056 C441 1061 429 1077 423 1077 C417 1077 405 1061 402 1056 L273 858 L281 851 L423 1012 L565 851 L573 858 L444 1056 L444 1056 Z " />
<glyph glyph-name="Otilde" unicode="&#xd5;" horiz-adv-x="852" d="M261 914 C261 946 287 978 314 978 C365 978 465 913 516 913 C552 913 588 964 588 1016 L585 1016 C585 986 557 956 529 956 C478 956 378 1021 327 1021 C292 1021 258 968 258 914 L261 914 L261 914 Z M135 397 C135 600 277 799 422 799 C572 799 720 600 720 397 C720 194 569 -5 414 -5 C273 -5 135 194 135 397 L135 397 Z M58 397 C58 191 234 -10 413 -10 C607 -10 797 191 797 397 C797 603 612 804 423 804 C239 804 58 603 58 397 L58 397 Z " />
<glyph glyph-name="Odieresis" unicode="&#xd6;" horiz-adv-x="852" d="M495 909 C515 909 534 928 534 948 C534 968 515 987 495 987 C475 987 456 968 456 948 C456 928 475 909 495 909 L495 909 Z M351 909 C371 909 390 928 390 948 C390 968 371 987 351 987 C331 987 312 968 312 948 C312 928 331 909 351 909 L351 909 Z M135 397 C135 600 277 799 422 799 C572 799 720 600 720 397 C720 194 569 -5 414 -5 C273 -5 135 194 135 397 L135 397 Z M58 397 C58 191 234 -10 413 -10 C607 -10 797 191 797 397 C797 603 612 804 423 804 C239 804 58 603 58 397 L58 397 Z " />
<glyph glyph-name="Oslash" unicode="&#xd8;" horiz-adv-x="852" d="M62 -13 C62 -13 104 33 174 110 C240 37 326 -11 413 -11 C607 -11 797 190 797 396 C797 497 753 597 685 672 C723 714 762 757 801 800 L793 806 C755 764 717 722 679 680 C609 754 517 803 424 803 C240 803 59 602 59 396 C59 294 102 193 168 117 C97 39 55 -8 55 -8 L62 -13 L62 -13 Z M648 645 C474 453 312 275 202 153 C162 223 137 309 137 396 C137 599 279 798 424 798 C508 798 591 735 648 644 L648 645 L648 645 Z M653 635 C695 565 721 480 721 394 C721 191 570 -8 415 -8 C337 -8 260 53 207 142 C317 263 479 441 654 633 L653 635 L653 635 Z " />
<glyph glyph-name="Ugrave" unicode="&#xd9;" horiz-adv-x="648" d="M121 1046 C121 1041 155 1008 189 979 L329 857 L336 865 L216 1007 C187 1042 156 1076 151 1076 C137 1076 121 1060 121 1046 L121 1046 Z M549 0 C558 2 575 7 584 9 L584 794 L514 794 L514 188 C478 111 359 36 273 36 C205 36 138 131 138 228 L138 794 L67 794 L67 228 C67 108 155 -10 244 -10 C341 -10 475 72 514 156 L514 0 L549 0 L549 0 Z " />
<glyph glyph-name="Uacute" unicode="&#xda;" horiz-adv-x="648" d="M332 857 L472 979 C506 1010 540 1042 540 1046 C540 1060 524 1076 510 1076 C507 1076 475 1042 445 1007 L325 865 L332 857 L332 857 Z M549 0 C558 2 575 7 584 9 L584 794 L514 794 L514 188 C478 111 359 36 273 36 C205 36 138 131 138 228 L138 794 L67 794 L67 228 C67 108 155 -10 244 -10 C341 -10 475 72 514 156 L514 0 L549 0 L549 0 Z " />
<glyph glyph-name="Ucircumflex" unicode="&#xdb;" horiz-adv-x="648" d="M347 1056 C344 1061 332 1077 326 1077 C320 1077 307 1061 304 1056 L176 858 L184 851 L326 1011 L467 851 L475 858 L347 1056 L347 1056 Z M549 0 C558 2 575 7 584 9 L584 794 L514 794 L514 188 C478 111 359 36 273 36 C205 36 138 131 138 228 L138 794 L67 794 L67 228 C67 108 155 -10 244 -10 C341 -10 475 72 514 156 L514 0 L549 0 L549 0 Z " />
<glyph glyph-name="Udieresis" unicode="&#xdc;" horiz-adv-x="648" d="M398 909 C417 909 436 928 436 948 C436 968 417 987 398 987 C378 987 359 968 359 948 C359 928 378 909 398 909 L398 909 Z M253 909 C273 909 292 928 292 948 C292 968 273 987 253 987 C234 987 215 968 215 948 C215 928 234 909 253 909 L253 909 Z M549 0 C558 2 575 7 584 9 L584 794 L514 794 L514 188 C478 111 359 36 273 36 C205 36 138 131 138 228 L138 794 L67 794 L67 228 C67 108 155 -10 244 -10 C341 -10 475 72 514 156 L514 0 L549 0 L549 0 Z " />
<glyph glyph-name="Yacute" unicode="&#xdd;" horiz-adv-x="639" d="M333 857 L473 979 C507 1010 541 1042 541 1046 C541 1060 525 1076 511 1076 C508 1076 476 1042 446 1007 L326 865 L333 857 L333 857 Z M162 794 L6 794 L6 791 C18 791 35 772 53 745 L291 347 L291 0 L362 0 L362 357 L573 744 C592 773 618 791 643 791 L643 794 L515 794 L515 791 L533 791 C561 791 574 764 560 736 L361 363 L141 738 C127 765 133 791 155 791 L163 791 L162 794 L162 794 Z " />
<glyph glyph-name="agrave" unicode="&#xe0;" horiz-adv-x="539" d="M549 85 L542 89 C537 63 508 38 482 38 C454 38 427 62 427 87 L427 389 C427 485 353 554 277 554 C173 554 71 449 71 404 C71 383 86 362 102 362 C120 362 137 381 137 392 C137 405 117 432 117 443 C117 475 193 548 271 548 C319 548 367 491 367 411 C367 411 367 355 367 290 C152 251 52 198 52 90 C52 40 113 -10 175 -10 C217 -10 299 28 366 87 C366 41 412 -5 458 -5 C496 -5 541 40 549 85 L549 85 Z M72 796 C72 791 106 758 140 729 L280 607 L288 615 L168 757 C139 792 107 826 102 826 C88 826 72 810 72 796 L72 796 Z M366 286 C366 205 366 111 366 91 C316 49 246 22 205 22 C157 22 110 59 110 97 C110 205 191 255 365 286 L366 286 L366 286 Z " />
<glyph glyph-name="aacute" unicode="&#xe1;" horiz-adv-x="539" d="M284 607 L424 729 C458 760 492 792 492 796 C492 810 476 826 462 826 C458 826 426 792 396 757 L276 615 L284 607 L284 607 Z M549 85 L542 89 C537 63 508 38 482 38 C454 38 427 62 427 87 L427 389 C427 485 353 554 277 554 C173 554 71 449 71 404 C71 383 86 362 102 362 C120 362 137 381 137 392 C137 405 117 432 117 443 C117 475 193 548 271 548 C319 548 367 491 367 411 C367 411 367 355 367 290 C152 251 52 198 52 90 C52 40 113 -10 175 -10 C217 -10 299 28 366 87 C366 41 412 -5 458 -5 C496 -5 541 40 549 85 L549 85 Z M366 286 C366 205 366 111 366 91 C316 49 246 22 205 22 C157 22 110 59 110 97 C110 205 191 255 365 286 L366 286 L366 286 Z " />
<glyph glyph-name="acircumflex" unicode="&#xe2;" horiz-adv-x="539" d="M549 85 L542 89 C537 63 508 38 482 38 C454 38 427 62 427 87 L427 389 C427 485 353 554 277 554 C173 554 71 449 71 404 C71 383 86 362 102 362 C120 362 137 381 137 392 C137 405 117 432 117 443 C117 475 193 548 271 548 C319 548 367 491 367 411 C367 411 367 355 367 290 C152 251 52 198 52 90 C52 40 113 -10 175 -10 C217 -10 299 28 366 87 C366 41 412 -5 458 -5 C496 -5 541 40 549 85 L549 85 Z M298 806 C295 811 283 827 277 827 C271 827 259 811 256 806 L127 608 L135 601 L277 762 L419 601 L427 608 L298 806 L298 806 Z M366 286 C366 205 366 111 366 91 C316 49 246 22 205 22 C157 22 110 59 110 97 C110 205 191 255 365 286 L366 286 L366 286 Z " />
<glyph glyph-name="atilde" unicode="&#xe3;" horiz-adv-x="539" d="M115 664 C115 696 141 728 168 728 C219 728 319 663 370 663 C406 663 442 714 442 766 L439 766 C439 736 411 706 383 706 C332 706 232 771 181 771 C146 771 112 718 112 664 L115 664 L115 664 Z M549 85 L542 89 C537 63 508 38 482 38 C454 38 427 62 427 87 L427 389 C427 485 353 554 277 554 C173 554 71 449 71 404 C71 383 86 362 102 362 C120 362 137 381 137 392 C137 405 117 432 117 443 C117 475 193 548 271 548 C319 548 367 491 367 411 C367 411 367 355 367 290 C152 251 52 198 52 90 C52 40 113 -10 175 -10 C217 -10 299 28 366 87 C366 41 412 -5 458 -5 C496 -5 541 40 549 85 L549 85 Z M366 286 C366 205 366 111 366 91 C316 49 246 22 205 22 C157 22 110 59 110 97 C110 205 191 255 365 286 L366 286 L366 286 Z " />
<glyph glyph-name="adieresis" unicode="&#xe4;" horiz-adv-x="539" d="M349 659 C369 659 388 678 388 698 C388 718 369 737 349 737 C329 737 310 718 310 698 C310 678 329 659 349 659 L349 659 Z M205 659 C225 659 244 678 244 698 C244 718 225 737 205 737 C185 737 166 718 166 698 C166 678 185 659 205 659 L205 659 Z M549 85 L542 89 C537 63 508 38 482 38 C454 38 427 62 427 87 L427 389 C427 485 353 554 277 554 C173 554 71 449 71 404 C71 383 86 362 102 362 C120 362 137 381 137 392 C137 405 117 432 117 443 C117 475 193 548 271 548 C319 548 367 491 367 411 C367 411 367 355 367 290 C152 251 52 198 52 90 C52 40 113 -10 175 -10 C217 -10 299 28 366 87 C366 41 412 -5 458 -5 C496 -5 541 40 549 85 L549 85 Z M366 286 C366 205 366 111 366 91 C316 49 246 22 205 22 C157 22 110 59 110 97 C110 205 191 255 365 286 L366 286 L366 286 Z " />
<glyph glyph-name="aring" unicode="&#xe5;" horiz-adv-x="539" d="M198 699 C198 740 237 780 277 780 C317 780 356 740 356 699 C356 662 313 618 277 618 C241 618 198 662 198 699 L198 699 Z M180 699 C180 656 233 604 277 604 C321 604 374 656 374 699 C374 747 326 794 277 794 C228 794 180 747 180 699 L180 699 Z M549 85 L542 89 C537 63 508 38 482 38 C454 38 427 62 427 87 L427 389 C427 485 353 554 277 554 C173 554 71 449 71 404 C71 383 86 362 102 362 C120 362 137 381 137 392 C137 405 117 432 117 443 C117 475 193 548 271 548 C319 548 367 491 367 411 C367 411 367 355 367 290 C152 251 52 198 52 90 C52 40 113 -10 175 -10 C217 -10 299 28 366 87 C366 41 412 -5 458 -5 C496 -5 541 40 549 85 L549 85 Z M366 286 C366 205 366 111 366 91 C316 49 246 22 205 22 C157 22 110 59 110 97 C110 205 191 255 365 286 L366 286 L366 286 Z " />
<glyph glyph-name="egrave" unicode="&#xe8;" horiz-adv-x="569" d="M112 796 C112 791 146 758 180 729 L320 607 L328 615 L208 757 C179 792 147 826 142 826 C128 826 112 810 112 796 L112 796 Z M120 370 L539 370 C528 482 420 554 317 554 C180 554 45 436 45 255 C45 121 167 -10 292 -10 C385 -10 500 66 524 143 L521 143 C500 75 389 8 298 8 C202 8 108 142 108 279 C108 312 112 342 119 370 L120 370 L120 370 Z M471 375 L120 374 C151 483 233 550 316 550 C385 550 459 481 472 375 L471 375 L471 375 Z " />
<glyph glyph-name="eacute" unicode="&#xe9;" horiz-adv-x="569" d="M324 607 L464 729 C498 760 532 792 532 796 C532 810 516 826 502 826 C498 826 466 792 436 757 L316 615 L324 607 L324 607 Z M120 370 L539 370 C528 482 420 554 317 554 C180 554 45 436 45 255 C45 121 167 -10 292 -10 C385 -10 500 66 524 143 L521 143 C500 75 389 8 298 8 C202 8 108 142 108 279 C108 312 112 342 119 370 L120 370 L120 370 Z M471 375 L120 374 C151 483 233 550 316 550 C385 550 459 481 472 375 L471 375 L471 375 Z " />
<glyph glyph-name="ecircumflex" unicode="&#xea;" horiz-adv-x="569" d="M338 806 C335 811 323 827 317 827 C311 827 299 811 296 806 L167 608 L175 601 L317 762 L459 601 L467 608 L338 806 L338 806 Z M120 370 L539 370 C528 482 420 554 317 554 C180 554 45 436 45 255 C45 121 167 -10 292 -10 C385 -10 500 66 524 143 L521 143 C500 75 389 8 298 8 C202 8 108 142 108 279 C108 312 112 342 119 370 L120 370 L120 370 Z M471 375 L120 374 C151 483 233 550 316 550 C385 550 459 481 472 375 L471 375 L471 375 Z " />
<glyph glyph-name="edieresis" unicode="&#xeb;" horiz-adv-x="569" d="M389 659 C409 659 428 678 428 698 C428 718 409 737 389 737 C369 737 350 718 350 698 C350 678 369 659 389 659 L389 659 Z M245 659 C265 659 284 678 284 698 C284 718 265 737 245 737 C225 737 206 718 206 698 C206 678 225 659 245 659 L245 659 Z M120 370 L539 370 C528 482 420 554 317 554 C180 554 45 436 45 255 C45 121 167 -10 292 -10 C385 -10 500 66 524 143 L521 143 C500 75 389 8 298 8 C202 8 108 142 108 279 C108 312 112 342 119 370 L120 370 L120 370 Z M471 375 L120 374 C151 483 233 550 316 550 C385 550 459 481 472 375 L471 375 L471 375 Z " />
<glyph glyph-name="igrave" unicode="&#xec;" horiz-adv-x="200" d="M-94 796 C-94 791 -60 758 -26 729 L114 607 L122 615 L2 757 C-27 792 -59 826 -64 826 C-78 826 -94 810 -94 796 L-94 796 Z M111 544 C103 542 89 538 81 536 L81 0 L141 0 L141 544 L111 544 L111 544 Z " />
<glyph glyph-name="iacute" unicode="&#xed;" horiz-adv-x="200" d="M-94 796 C-94 791 -60 758 -26 729 L114 607 L122 615 L2 757 C-27 792 -59 826 -64 826 C-78 826 -94 810 -94 796 L-94 796 Z M111 544 C103 542 89 538 81 536 L81 0 L141 0 L141 544 L111 544 L111 544 Z " />
<glyph glyph-name="icircumflex" unicode="&#xee;" horiz-adv-x="200" d="M132 806 C129 811 117 827 111 827 C105 827 93 811 90 806 L-39 608 L-31 601 L111 762 L253 601 L261 608 L132 806 L132 806 Z M111 544 C103 542 89 538 81 536 L81 0 L141 0 L141 544 L111 544 L111 544 Z " />
<glyph glyph-name="idieresis" unicode="&#xef;" horiz-adv-x="200" d="M183 659 C203 659 222 678 222 698 C222 718 203 737 183 737 C163 737 144 718 144 698 C144 678 163 659 183 659 L183 659 Z M39 659 C59 659 78 678 78 698 C78 718 59 737 39 737 C19 737 0 718 0 698 C0 678 19 659 39 659 L39 659 Z M111 544 C103 542 89 538 81 536 L81 0 L141 0 L141 544 L111 544 L111 544 Z " />
<glyph glyph-name="ntilde" unicode="&#xf1;" horiz-adv-x="472" d="M72 664 C72 696 98 728 125 728 C176 728 276 663 327 663 C363 663 399 714 399 766 L396 766 C396 736 368 706 340 706 C289 706 189 771 138 771 C103 771 69 718 69 664 L72 664 L72 664 Z M25 527 L28 527 C34 525 40 502 40 479 L40 0 L100 0 L100 409 C145 467 225 523 261 523 C320 523 368 446 368 367 L368 0 L428 0 L428 367 C428 461 362 554 280 554 C242 554 153 487 100 419 L100 544 L70 544 C59 541 36 535 25 532 L25 527 L25 527 Z " />
<glyph glyph-name="ograve" unicode="&#xf2;" horiz-adv-x="633" d="M111 272 C111 411 213 548 317 548 C421 548 522 411 522 272 C522 133 421 -4 317 -4 C213 -4 111 133 111 272 L111 272 Z M45 272 C45 130 180 -10 317 -10 C454 -10 588 130 588 272 C588 414 454 554 317 554 C180 554 45 414 45 272 L45 272 Z M112 796 C112 791 146 758 180 729 L320 607 L328 615 L208 757 C179 792 147 826 142 826 C128 826 112 810 112 796 L112 796 Z " />
<glyph glyph-name="oacute" unicode="&#xf3;" horiz-adv-x="633" d="M324 607 L464 729 C498 760 532 792 532 796 C532 810 516 826 502 826 C498 826 466 792 436 757 L316 615 L324 607 L324 607 Z M111 272 C111 411 213 548 317 548 C421 548 522 411 522 272 C522 133 421 -4 317 -4 C213 -4 111 133 111 272 L111 272 Z M45 272 C45 130 180 -10 317 -10 C454 -10 588 130 588 272 C588 414 454 554 317 554 C180 554 45 414 45 272 L45 272 Z " />
<glyph glyph-name="ocircumflex" unicode="&#xf4;" horiz-adv-x="633" d="M111 272 C111 411 213 548 317 548 C421 548 522 411 522 272 C522 133 421 -4 317 -4 C213 -4 111 133 111 272 L111 272 Z M45 272 C45 130 180 -10 317 -10 C454 -10 588 130 588 272 C588 414 454 554 317 554 C180 554 45 414 45 272 L45 272 Z M338 806 C335 811 323 827 317 827 C311 827 299 811 296 806 L167 608 L175 601 L317 762 L459 601 L467 608 L338 806 L338 806 Z " />
<glyph glyph-name="otilde" unicode="&#xf5;" horiz-adv-x="633" d="M155 664 C155 696 181 728 208 728 C259 728 359 663 410 663 C446 663 482 714 482 766 L479 766 C479 736 451 706 423 706 C372 706 272 771 221 771 C186 771 152 718 152 664 L155 664 L155 664 Z M111 272 C111 411 213 548 317 548 C421 548 522 411 522 272 C522 133 421 -4 317 -4 C213 -4 111 133 111 272 L111 272 Z M45 272 C45 130 180 -10 317 -10 C454 -10 588 130 588 272 C588 414 454 554 317 554 C180 554 45 414 45 272 L45 272 Z " />
<glyph glyph-name="odieresis" unicode="&#xf6;" horiz-adv-x="633" d="M389 659 C409 659 428 678 428 698 C428 718 409 737 389 737 C369 737 350 718 350 698 C350 678 369 659 389 659 L389 659 Z M245 659 C265 659 284 678 284 698 C284 718 265 737 245 737 C225 737 206 718 206 698 C206 678 225 659 245 659 L245 659 Z M111 272 C111 411 213 548 317 548 C421 548 522 411 522 272 C522 133 421 -4 317 -4 C213 -4 111 133 111 272 L111 272 Z M45 272 C45 130 180 -10 317 -10 C454 -10 588 130 588 272 C588 414 454 554 317 554 C180 554 45 414 45 272 L45 272 Z " />
<glyph glyph-name="oslash" unicode="&#xf8;" horiz-adv-x="633" d="M47 -12 C47 -12 79 21 132 76 C183 24 250 -10 318 -10 C455 -10 589 130 589 272 C589 342 556 412 506 465 C534 494 562 523 590 552 L586 556 C558 527 530 498 502 469 C452 521 385 555 317 555 C180 555 45 415 45 273 C45 203 78 133 128 80 C75 25 43 -8 43 -8 L47 -12 L47 -12 Z M474 439 C351 311 237 192 157 109 C129 156 111 213 111 271 C111 410 213 547 317 547 C376 547 434 502 473 438 L474 439 L474 439 Z M476 433 C504 386 521 329 521 271 C521 132 420 -5 316 -5 C257 -5 198 40 159 104 C239 187 353 306 476 434 L476 433 L476 433 Z " />
<glyph glyph-name="ugrave" unicode="&#xf9;" horiz-adv-x="475" d="M31 797 C31 792 65 759 99 730 L239 608 L246 616 L126 758 C97 793 66 827 61 827 C47 827 31 811 31 797 L31 797 Z M436 62 L436 544 L406 544 L406 545 L375 545 L375 134 C347 81 271 33 211 33 C153 33 96 100 96 168 L96 545 L36 545 L36 168 C36 79 109 -9 183 -9 C251 -9 341 57 375 128 L375 1 L406 1 C413 5 426 9 436 9 L436 62 L436 62 Z " />
<glyph glyph-name="uacute" unicode="&#xfa;" horiz-adv-x="475" d="M242 608 L382 730 C416 761 450 793 450 797 C450 811 434 827 420 827 C417 827 385 793 355 758 L235 616 L242 608 L242 608 Z M436 62 L436 544 L406 544 L406 545 L375 545 L375 134 C347 81 271 33 211 33 C153 33 96 100 96 168 L96 545 L36 545 L36 168 C36 79 109 -9 183 -9 C251 -9 341 57 375 128 L375 1 L406 1 C413 5 426 9 436 9 L436 62 L436 62 Z " />
<glyph glyph-name="ucircumflex" unicode="&#xfb;" horiz-adv-x="475" d="M257 807 C254 812 242 828 236 828 C230 828 217 812 214 807 L86 609 L94 602 L236 762 L377 602 L385 609 L257 807 L257 807 Z M436 62 L436 544 L406 544 L406 545 L375 545 L375 134 C347 81 271 33 211 33 C153 33 96 100 96 168 L96 545 L36 545 L36 168 C36 79 109 -9 183 -9 C251 -9 341 57 375 128 L375 1 L406 1 C413 5 426 9 436 9 L436 62 L436 62 Z " />
<glyph glyph-name="udieresis" unicode="&#xfc;" horiz-adv-x="475" d="M308 660 C327 660 346 679 346 699 C346 719 327 738 308 738 C288 738 269 719 269 699 C269 679 288 660 308 660 L308 660 Z M163 660 C183 660 202 679 202 699 C202 719 183 738 163 738 C144 738 125 719 125 699 C125 679 144 660 163 660 L163 660 Z M436 62 L436 544 L406 544 L406 545 L375 545 L375 134 C347 81 271 33 211 33 C153 33 96 100 96 168 L96 545 L36 545 L36 168 C36 79 109 -9 183 -9 C251 -9 341 57 375 128 L375 1 L406 1 C413 5 426 9 436 9 L436 62 L436 62 Z " />
<glyph glyph-name="ydieresis" unicode="&#xff;" horiz-adv-x="454" d="M318 659 C338 659 357 678 357 698 C357 718 338 737 318 737 C298 737 279 718 279 698 C279 678 298 659 318 659 L318 659 Z M174 659 C194 659 213 678 213 698 C213 718 194 737 174 737 C154 737 135 718 135 698 C135 678 154 659 174 659 L174 659 Z M449 544 L392 544 L392 541 L394 541 C400 541 397 516 389 489 C344 356 303 220 256 90 L107 485 C96 513 92 540 98 540 L100 540 L100 543 L7 543 L7 540 C15 540 27 522 38 497 L224 1 C204 -53 184 -107 164 -161 C158 -178 142 -195 137 -195 C118 -195 106 -173 87 -173 C66 -173 45 -194 45 -215 C45 -238 68 -261 92 -261 C111 -261 162 -215 179 -169 L237 -11 C297 158 357 327 417 496 C428 522 439 540 449 540 L449 544 L449 544 Z " />
<glyph glyph-name="Amacron" unicode="&#x100;" horiz-adv-x="644" d="M155 944 L494 944 L494 985 L155 985 L155 944 L155 944 Z M440 0 L644 0 L644 3 L637 3 C618 3 584 53 568 103 C494 340 420 577 347 814 L340 814 C343 797 318 776 289 772 L292 762 L87 103 C71 52 20 3 -16 3 L-29 3 L-29 0 L146 0 L146 3 L133 3 C97 3 77 53 93 103 L93 103 L157 311 L430 311 L496 94 C506 47 486 4 452 4 L439 4 L440 0 L440 0 Z M158 318 L293 757 L427 318 L158 318 L158 318 Z " />
<glyph glyph-name="amacron" unicode="&#x101;" horiz-adv-x="539" d="M107 694 L447 694 L447 735 L107 735 L107 694 L107 694 Z M549 85 L542 89 C537 63 508 38 482 38 C454 38 427 62 427 87 L427 389 C427 485 353 554 277 554 C173 554 71 449 71 404 C71 383 86 362 102 362 C120 362 137 381 137 392 C137 405 117 432 117 443 C117 475 193 548 271 548 C319 548 367 491 367 411 C367 411 367 355 367 290 C152 251 52 198 52 90 C52 40 113 -10 175 -10 C217 -10 299 28 366 87 C366 41 412 -5 458 -5 C496 -5 541 40 549 85 L549 85 Z M366 286 C366 205 366 111 366 91 C316 49 246 22 205 22 C157 22 110 59 110 97 C110 205 191 255 365 286 L366 286 L366 286 Z " />
<glyph glyph-name="Abreve" unicode="&#x102;" horiz-adv-x="644" d="M183 1039 C186 982 257 927 325 927 C393 927 464 981 467 1037 L454 1039 C452 1004 388 970 325 970 C262 970 197 1005 195 1040 L183 1039 L183 1039 Z M440 0 L644 0 L644 3 L637 3 C618 3 584 53 568 103 C494 340 420 577 347 814 L340 814 C343 797 318 776 289 772 L292 762 L87 103 C71 52 20 3 -16 3 L-29 3 L-29 0 L146 0 L146 3 L133 3 C97 3 77 53 93 103 L93 103 L157 311 L430 311 L496 94 C506 47 486 4 452 4 L439 4 L440 0 L440 0 Z M158 318 L293 757 L427 318 L158 318 L158 318 Z " />
<glyph glyph-name="abreve" unicode="&#x103;" horiz-adv-x="539" d="M135 789 C138 732 209 677 277 677 C345 677 416 731 419 787 L406 789 C404 754 340 720 277 720 C214 720 150 755 148 790 L135 789 L135 789 Z M549 85 L542 89 C537 63 508 38 482 38 C454 38 427 62 427 87 L427 389 C427 485 353 554 277 554 C173 554 71 449 71 404 C71 383 86 362 102 362 C120 362 137 381 137 392 C137 405 117 432 117 443 C117 475 193 548 271 548 C319 548 367 491 367 411 C367 411 367 355 367 290 C152 251 52 198 52 90 C52 40 113 -10 175 -10 C217 -10 299 28 366 87 C366 41 412 -5 458 -5 C496 -5 541 40 549 85 L549 85 Z M366 286 C366 205 366 111 366 91 C316 49 246 22 205 22 C157 22 110 59 110 97 C110 205 191 255 365 286 L366 286 L366 286 Z " />
<glyph glyph-name="Cacute" unicode="&#x106;" horiz-adv-x="748" d="M417 857 L557 979 C591 1010 625 1042 625 1046 C625 1060 609 1076 595 1076 C591 1076 559 1042 529 1007 L409 865 L417 857 L417 857 Z M703 60 L703 173 L690 173 C677 133 624 76 581 50 L581 50 C528 17 465 -5 401 -5 C267 -5 135 194 135 397 C135 600 272 799 412 799 C471 799 528 777 578 745 C578 745 661 685 685 633 C686 630 690 623 691 620 L704 620 L704 731 L699 731 C699 727 698 721 698 717 C696 701 667 706 638 727 L638 727 C579 771 501 804 411 804 C233 804 59 603 59 397 C59 191 228 -10 400 -10 C493 -10 580 23 641 67 L641 67 C668 87 697 90 698 74 C698 70 699 64 699 60 L703 60 L703 60 Z M695 136 L695 136 L695 136 L695 136 Z " />
<glyph glyph-name="Ccircumflex" unicode="&#x108;" horiz-adv-x="748" d="M703 60 L703 173 L690 173 C677 133 624 76 581 50 L581 50 C528 17 465 -5 401 -5 C267 -5 135 194 135 397 C135 600 272 799 412 799 C471 799 528 777 578 745 C578 745 661 685 685 633 C686 630 690 623 691 620 L704 620 L704 731 L699 731 C699 727 698 721 698 717 C696 701 667 706 638 727 L638 727 C579 771 501 804 411 804 C233 804 59 603 59 397 C59 191 228 -10 400 -10 C493 -10 580 23 641 67 L641 67 C668 87 697 90 698 74 C698 70 699 64 699 60 L703 60 L703 60 Z M432 1056 C429 1061 417 1077 411 1077 C405 1077 393 1061 390 1056 L261 858 L269 851 L411 1012 L553 851 L561 858 L432 1056 L432 1056 Z M695 136 L695 136 L695 136 L695 136 Z " />
<glyph glyph-name="Cdot" unicode="&#x10a;" horiz-adv-x="748" d="M410 909 C430 909 449 928 449 948 C449 968 430 987 410 987 C390 987 371 968 371 948 C371 928 390 909 410 909 L410 909 Z M703 60 L703 173 L690 173 C677 133 624 76 581 50 L581 50 C528 17 465 -5 401 -5 C267 -5 135 194 135 397 C135 600 272 799 412 799 C471 799 528 777 578 745 C578 745 661 685 685 633 C686 630 690 623 691 620 L704 620 L704 731 L699 731 C699 727 698 721 698 717 C696 701 667 706 638 727 L638 727 C579 771 501 804 411 804 C233 804 59 603 59 397 C59 191 228 -10 400 -10 C493 -10 580 23 641 67 L641 67 C668 87 697 90 698 74 C698 70 699 64 699 60 L703 60 L703 60 Z M695 136 L695 136 L695 136 L695 136 Z " />
<glyph glyph-name="cdot" unicode="&#x10b;" horiz-adv-x="509" d="M292 659 C312 659 331 678 331 698 C331 718 312 737 292 737 C272 737 253 718 253 698 C253 678 272 659 292 659 L292 659 Z M479 136 L477 137 C451 71 355 6 282 6 C193 6 106 146 106 288 C106 420 197 550 290 550 C337 550 400 500 419 449 C425 434 439 419 449 419 C470 419 485 434 479 449 C460 502 367 554 292 554 C167 554 45 407 45 258 C45 123 158 -10 273 -10 C348 -10 450 62 479 136 L479 136 Z " />
<glyph glyph-name="Ccaron" unicode="&#x10c;" horiz-adv-x="748" d="M552 1087 L410 926 L268 1087 L260 1080 L389 882 C392 877 404 861 410 861 C416 861 428 877 431 882 L560 1080 L552 1087 L552 1087 Z M703 60 L703 173 L690 173 C677 133 624 76 581 50 L581 50 C528 17 465 -5 401 -5 C267 -5 135 194 135 397 C135 600 272 799 412 799 C471 799 528 777 578 745 C578 745 661 685 685 633 C686 630 690 623 691 620 L704 620 L704 731 L699 731 C699 727 698 721 698 717 C696 701 667 706 638 727 L638 727 C579 771 501 804 411 804 C233 804 59 603 59 397 C59 191 228 -10 400 -10 C493 -10 580 23 641 67 L641 67 C668 87 697 90 698 74 C698 70 699 64 699 60 L703 60 L703 60 Z M695 136 L695 136 L695 136 L695 136 Z " />
<glyph glyph-name="ccaron" unicode="&#x10d;" horiz-adv-x="509" d="M434 837 L292 676 L150 837 L142 830 L271 632 C274 627 286 611 292 611 C298 611 310 627 313 632 L442 830 L434 837 L434 837 Z M479 136 L477 137 C451 71 355 6 282 6 C193 6 106 146 106 288 C106 420 197 550 290 550 C337 550 400 500 419 449 C425 434 439 419 449 419 C470 419 485 434 479 449 C460 502 367 554 292 554 C167 554 45 407 45 258 C45 123 158 -10 273 -10 C348 -10 450 62 479 136 L479 136 Z " />
<glyph glyph-name="Dcaron" unicode="&#x10e;" horiz-adv-x="806" d="M529 1087 L388 927 L246 1087 L238 1080 L366 882 C369 877 382 861 388 861 C394 861 406 877 409 882 L537 1080 L529 1087 L529 1087 Z M257 4 C193 4 173 19 173 34 L173 790 L292 790 C504 790 673 595 673 397 C673 179 467 4 257 4 L257 4 Z M264 0 C510 0 751 176 751 397 C751 597 555 794 309 794 L102 794 L102 0 L264 0 L264 0 Z " />
<glyph glyph-name="dcaron" unicode="&#x10f;" horiz-adv-x="570" d="M610 803 C600 803 586 734 582 696 L568 585 L579 582 L613 689 C625 726 637 778 637 794 C637 799 624 803 610 803 L610 803 Z M521 62 L521 794 L491 794 L491 795 C479 792 457 786 445 783 L445 778 L448 778 C454 776 460 753 460 730 L460 448 C427 502 361 553 310 553 C163 553 45 415 45 274 C45 133 163 -6 283 -6 C342 -6 427 32 460 72 L460 -1 L491 -1 C498 3 511 7 521 7 L521 60 L521 62 L521 62 Z M460 407 L460 79 C433 48 361 19 308 19 C206 19 107 154 107 291 C107 414 200 535 317 535 C369 535 442 465 460 407 L460 407 Z " />
<glyph glyph-name="Emacron" unicode="&#x112;" horiz-adv-x="582" d="M136 944 L476 944 L476 985 L136 985 L136 944 L136 944 Z M535 0 C535 4 547 71 549 79 L540 79 L535 67 C522 35 459 4 406 4 L207 4 C181 4 173 18 173 33 L173 407 L344 407 C384 407 430 371 437 335 L440 322 L449 322 L449 407 L450 407 L450 412 L449 412 L449 497 L440 497 L437 484 C430 448 384 412 344 412 L173 412 L173 788 L405 788 C446 788 496 752 507 716 L512 703 L521 703 C518 725 513 769 510 791 L510 793 L102 793 L102 -1 L535 0 L535 0 Z " />
<glyph glyph-name="emacron" unicode="&#x113;" horiz-adv-x="569" d="M147 694 L487 694 L487 735 L147 735 L147 694 L147 694 Z M120 370 L539 370 C528 482 420 554 317 554 C180 554 45 436 45 255 C45 121 167 -10 292 -10 C385 -10 500 66 524 143 L521 143 C500 75 389 8 298 8 C202 8 108 142 108 279 C108 312 112 342 119 370 L120 370 L120 370 Z M471 375 L120 374 C151 483 233 550 316 550 C385 550 459 481 472 375 L471 375 L471 375 Z " />
<glyph glyph-name="Ebreve" unicode="&#x114;" horiz-adv-x="582" d="M164 1039 C167 982 238 927 306 927 C374 927 445 981 448 1037 L435 1039 C433 1004 369 970 306 970 C243 970 179 1005 177 1040 L164 1039 L164 1039 Z M535 0 C535 4 547 71 549 79 L540 79 L535 67 C522 35 459 4 406 4 L207 4 C181 4 173 18 173 33 L173 407 L344 407 C384 407 430 371 437 335 L440 322 L449 322 L449 407 L450 407 L450 412 L449 412 L449 497 L440 497 L437 484 C430 448 384 412 344 412 L173 412 L173 788 L405 788 C446 788 496 752 507 716 L512 703 L521 703 C518 725 513 769 510 791 L510 793 L102 793 L102 -1 L535 0 L535 0 Z " />
<glyph glyph-name="ebreve" unicode="&#x115;" horiz-adv-x="569" d="M175 789 C178 732 249 677 317 677 C385 677 456 731 459 787 L446 789 C444 754 380 720 317 720 C254 720 190 755 188 790 L175 789 L175 789 Z M120 370 L539 370 C528 482 420 554 317 554 C180 554 45 436 45 255 C45 121 167 -10 292 -10 C385 -10 500 66 524 143 L521 143 C500 75 389 8 298 8 C202 8 108 142 108 279 C108 312 112 342 119 370 L120 370 L120 370 Z M471 375 L120 374 C151 483 233 550 316 550 C385 550 459 481 472 375 L471 375 L471 375 Z " />
<glyph glyph-name="Edot" unicode="&#x116;" horiz-adv-x="582" d="M306 909 C326 909 345 928 345 948 C345 968 326 987 306 987 C286 987 267 968 267 948 C267 928 286 909 306 909 L306 909 Z M535 0 C535 4 547 71 549 79 L540 79 L535 67 C522 35 459 4 406 4 L207 4 C181 4 173 18 173 33 L173 407 L344 407 C384 407 430 371 437 335 L440 322 L449 322 L449 407 L450 407 L450 412 L449 412 L449 497 L440 497 L437 484 C430 448 384 412 344 412 L173 412 L173 788 L405 788 C446 788 496 752 507 716 L512 703 L521 703 C518 725 513 769 510 791 L510 793 L102 793 L102 -1 L535 0 L535 0 Z " />
<glyph glyph-name="edot" unicode="&#x117;" horiz-adv-x="569" d="M317 659 C337 659 356 678 356 698 C356 718 337 737 317 737 C297 737 278 718 278 698 C278 678 297 659 317 659 L317 659 Z M120 370 L539 370 C528 482 420 554 317 554 C180 554 45 436 45 255 C45 121 167 -10 292 -10 C385 -10 500 66 524 143 L521 143 C500 75 389 8 298 8 C202 8 108 142 108 279 C108 312 112 342 119 370 L120 370 L120 370 Z M471 375 L120 374 C151 483 233 550 316 550 C385 550 459 481 472 375 L471 375 L471 375 Z " />
<glyph glyph-name="Ecaron" unicode="&#x11a;" horiz-adv-x="582" d="M448 1087 L306 926 L164 1087 L156 1080 L285 882 C288 877 300 861 306 861 C312 861 324 877 327 882 L456 1080 L448 1087 L448 1087 Z M535 0 C535 4 547 71 549 79 L540 79 L535 67 C522 35 459 4 406 4 L207 4 C181 4 173 18 173 33 L173 407 L344 407 C384 407 430 371 437 335 L440 322 L449 322 L449 407 L450 407 L450 412 L449 412 L449 497 L440 497 L437 484 C430 448 384 412 344 412 L173 412 L173 788 L405 788 C446 788 496 752 507 716 L512 703 L521 703 C518 725 513 769 510 791 L510 793 L102 793 L102 -1 L535 0 L535 0 Z " />
<glyph glyph-name="ecaron" unicode="&#x11b;" horiz-adv-x="569" d="M459 837 L317 676 L175 837 L167 830 L296 632 C299 627 311 611 317 611 C323 611 335 627 338 632 L467 830 L459 837 L459 837 Z M120 370 L539 370 C528 482 420 554 317 554 C180 554 45 436 45 255 C45 121 167 -10 292 -10 C385 -10 500 66 524 143 L521 143 C500 75 389 8 298 8 C202 8 108 142 108 279 C108 312 112 342 119 370 L120 370 L120 370 Z M471 375 L120 374 C151 483 233 550 316 550 C385 550 459 481 472 375 L471 375 L471 375 Z " />
<glyph glyph-name="Gcircumflex" unicode="&#x11c;" horiz-adv-x="775" d="M703 620 L703 731 L698 731 C698 727 697 721 697 717 C695 701 666 706 637 727 L637 727 C578 771 500 804 410 804 C232 804 58 603 58 397 C58 191 228 -10 402 -10 C535 -10 681 26 759 62 L757 65 C738 56 713 47 684 39 L684 344 L613 344 L613 256 C614 256 615 96 615 87 C605 45 511 5 414 5 C273 5 135 200 135 398 C135 601 272 800 412 800 C471 800 528 778 578 746 C578 746 661 686 685 634 C686 631 690 624 691 621 L703 620 L703 620 Z M432 1057 C429 1062 417 1078 411 1078 C405 1078 393 1062 390 1057 L261 859 L269 852 L411 1013 L553 852 L561 859 L432 1057 L432 1057 Z M566 16 C518 9 466 5 414 5 C446 5 517 11 565 16 L566 16 L566 16 Z " />
<glyph glyph-name="Gbreve" unicode="&#x11e;" horiz-adv-x="775" d="M268 1039 C271 982 342 927 410 927 C478 927 549 981 552 1037 L539 1039 C537 1004 473 970 410 970 C347 970 283 1005 281 1040 L268 1039 L268 1039 Z M703 620 L703 731 L698 731 C698 727 697 721 697 717 C695 701 666 706 637 727 L637 727 C578 771 500 804 410 804 C232 804 58 603 58 397 C58 191 228 -10 402 -10 C535 -10 681 26 759 62 L757 65 C738 56 713 47 684 39 L684 344 L613 344 L613 256 C614 256 615 96 615 87 C605 45 511 5 414 5 C273 5 135 200 135 398 C135 601 272 800 412 800 C471 800 528 778 578 746 C578 746 661 686 685 634 C686 631 690 624 691 621 L703 620 L703 620 Z M566 16 C518 9 466 5 414 5 C446 5 517 11 565 16 L566 16 L566 16 Z " />
<glyph glyph-name="gbreve" unicode="&#x11f;" horiz-adv-x="547" d="M130 789 C133 732 204 677 272 677 C340 677 411 731 414 787 L401 789 C399 754 335 720 272 720 C209 720 145 755 143 790 L130 789 L130 789 Z M566 495 C566 514 547 532 528 532 C494 532 451 501 432 466 C397 516 335 553 272 553 C176 553 81 467 81 380 C81 301 157 223 242 207 C145 200 58 158 58 115 C58 68 109 23 167 13 C106 -6 51 -56 51 -95 C51 -164 165 -231 282 -231 C398 -231 512 -154 512 -76 C512 -2 435 71 316 71 L193 71 C143 71 93 102 93 133 C93 169 182 204 272 204 C368 204 462 291 462 380 C462 408 452 436 436 461 C449 479 472 493 492 493 C504 493 529 468 541 468 C554 468 566 481 566 494 L566 495 L566 495 Z M272 208 C206 208 141 293 141 380 C141 465 206 549 272 549 C337 549 401 465 401 380 C401 293 337 208 272 208 L272 208 Z M173 12 C179 11 185 11 191 11 L311 11 C403 11 463 -39 463 -91 C463 -160 374 -227 284 -227 C192 -227 101 -154 101 -80 C101 -45 135 -4 174 13 L173 12 L173 12 Z " />
<glyph glyph-name="Gdot" unicode="&#x120;" horiz-adv-x="775" d="M410 909 C430 909 449 928 449 948 C449 968 430 987 410 987 C390 987 371 968 371 948 C371 928 390 909 410 909 L410 909 Z M703 620 L703 731 L698 731 C698 727 697 721 697 717 C695 701 666 706 637 727 L637 727 C578 771 500 804 410 804 C232 804 58 603 58 397 C58 191 228 -10 402 -10 C535 -10 681 26 759 62 L757 65 C738 56 713 47 684 39 L684 344 L613 344 L613 256 C614 256 615 96 615 87 C605 45 511 5 414 5 C273 5 135 200 135 398 C135 601 272 800 412 800 C471 800 528 778 578 746 C578 746 661 686 685 634 C686 631 690 624 691 621 L703 620 L703 620 Z M566 16 C518 9 466 5 414 5 C446 5 517 11 565 16 L566 16 L566 16 Z " />
<glyph glyph-name="gdot" unicode="&#x121;" horiz-adv-x="547" d="M272 659 C292 659 311 678 311 698 C311 718 292 737 272 737 C252 737 233 718 233 698 C233 678 252 659 272 659 L272 659 Z M566 495 C566 514 547 532 528 532 C494 532 451 501 432 466 C397 516 335 553 272 553 C176 553 81 467 81 380 C81 301 157 223 242 207 C145 200 58 158 58 115 C58 68 109 23 167 13 C106 -6 51 -56 51 -95 C51 -164 165 -231 282 -231 C398 -231 512 -154 512 -76 C512 -2 435 71 316 71 L193 71 C143 71 93 102 93 133 C93 169 182 204 272 204 C368 204 462 291 462 380 C462 408 452 436 436 461 C449 479 472 493 492 493 C504 493 529 468 541 468 C554 468 566 481 566 494 L566 495 L566 495 Z M272 208 C206 208 141 293 141 380 C141 465 206 549 272 549 C337 549 401 465 401 380 C401 293 337 208 272 208 L272 208 Z M173 12 C179 11 185 11 191 11 L311 11 C403 11 463 -39 463 -91 C463 -160 374 -227 284 -227 C192 -227 101 -154 101 -80 C101 -45 135 -4 174 13 L173 12 L173 12 Z " />
<glyph glyph-name="Hcircumflex" unicode="&#x124;" horiz-adv-x="762" d="M424 1056 C421 1061 409 1077 403 1077 C397 1077 385 1061 382 1056 L253 858 L261 851 L403 1012 L545 851 L553 858 L424 1056 L424 1056 Z M668 0 L668 794 L597 794 L597 411 L209 411 L209 794 L138 794 L138 0 L209 0 L209 405 L597 405 L597 0 L668 0 L668 0 Z " />
<glyph glyph-name="Itilde" unicode="&#x128;" horiz-adv-x="269" d="M-22 914 C-22 946 4 978 31 978 C82 978 182 913 233 913 C269 913 305 964 305 1016 L302 1016 C302 986 274 956 246 956 C195 956 95 1021 44 1021 C9 1021 -25 968 -25 914 L-22 914 L-22 914 Z M175 0 L175 794 L104 794 L104 0 L175 0 L175 0 Z " />
<glyph glyph-name="itilde" unicode="&#x129;" horiz-adv-x="200" d="M-51 664 C-51 696 -25 728 2 728 C53 728 153 663 204 663 C240 663 276 714 276 766 L273 766 C273 736 245 706 217 706 C166 706 66 771 15 771 C-20 771 -54 718 -54 664 L-51 664 L-51 664 Z M111 544 C103 542 89 538 81 536 L81 0 L141 0 L141 544 L111 544 L111 544 Z " />
<glyph glyph-name="Imacron" unicode="&#x12a;" horiz-adv-x="269" d="M-30 944 L310 944 L310 985 L-30 985 L-30 944 L-30 944 Z M175 0 L175 794 L104 794 L104 0 L175 0 L175 0 Z " />
<glyph glyph-name="imacron" unicode="&#x12b;" horiz-adv-x="200" d="M-59 694 L281 694 L281 735 L-59 735 L-59 694 L-59 694 Z M111 544 C103 542 89 538 81 536 L81 0 L141 0 L141 544 L111 544 L111 544 Z " />
<glyph glyph-name="Ibreve" unicode="&#x12c;" horiz-adv-x="269" d="M-2 1039 C1 982 72 927 140 927 C208 927 279 981 282 1037 L269 1039 C267 1004 203 970 140 970 C77 970 13 1005 11 1040 L-2 1039 L-2 1039 Z M175 0 L175 794 L104 794 L104 0 L175 0 L175 0 Z " />
<glyph glyph-name="ibreve" unicode="&#x12d;" horiz-adv-x="200" d="M-31 789 C-28 732 43 677 111 677 C179 677 250 731 253 787 L240 789 C238 754 174 720 111 720 C48 720 -16 755 -18 790 L-31 789 L-31 789 Z M111 544 C103 542 89 538 81 536 L81 0 L141 0 L141 544 L111 544 L111 544 Z " />
<glyph glyph-name="Idot" unicode="&#x130;" horiz-adv-x="269" d="M140 909 C160 909 179 928 179 948 C179 968 160 987 140 987 C120 987 101 968 101 948 C101 928 120 909 140 909 L140 909 Z M175 0 L175 794 L104 794 L104 0 L175 0 L175 0 Z " />
<glyph glyph-name="dotlessi" unicode="&#x131;" horiz-adv-x="200" d="M111 544 C103 542 89 538 81 536 L81 0 L141 0 L141 544 L111 544 L111 544 Z " />
<glyph glyph-name="Jcircumflex" unicode="&#x134;" horiz-adv-x="269" d="M161 1056 C158 1061 146 1077 140 1077 C134 1077 122 1061 119 1056 L-10 858 L-2 851 L140 1012 L282 851 L290 858 L161 1056 L161 1056 Z M104 -45 C104 -163 23 -212 -22 -212 C-51 -212 -46 -155 -75 -155 C-91 -155 -107 -171 -107 -187 C-107 -204 -67 -220 -27 -220 C44 -220 175 -129 175 89 L175 794 L104 794 L104 -45 L104 -45 Z " />
<glyph glyph-name="Lacute" unicode="&#x139;" horiz-adv-x="567" d="M147 857 L287 979 C321 1010 355 1042 355 1046 C355 1060 339 1076 325 1076 C321 1076 289 1042 259 1007 L139 865 L147 857 L147 857 Z M209 12 C183 12 175 23 175 34 L175 794 L104 794 L104 0 L543 0 C543 23 553 64 557 86 L548 86 L543 74 C530 42 467 11 414 11 L209 12 L209 12 Z " />
<glyph glyph-name="Lcaron" unicode="&#x13d;" horiz-adv-x="567" d="M313 852 C302 852 289 783 285 745 L272 634 L282 631 L316 738 C328 775 340 827 340 843 C340 848 327 852 313 852 L313 852 Z M209 12 C183 12 175 23 175 34 L175 794 L104 794 L104 0 L543 0 C543 23 553 64 557 86 L548 86 L543 74 C530 42 467 11 414 11 L209 12 L209 12 Z " />
<glyph glyph-name="lcaron" unicode="&#x13e;" horiz-adv-x="144" d="M189 802 C179 802 165 733 161 695 L147 584 L158 581 L192 688 C204 725 216 777 216 793 C216 798 203 802 189 802 L189 802 Z M25 777 L28 777 C34 775 40 752 40 729 L40 0 L100 0 L100 794 L70 794 C59 791 36 785 25 782 L25 777 L25 777 Z " />
<glyph glyph-name="Nacute" unicode="&#x143;" horiz-adv-x="704" d="M256 857 L396 979 C430 1010 464 1042 464 1046 C464 1060 448 1076 434 1076 C431 1076 399 1042 369 1007 L249 865 L256 857 L256 857 Z M54 0 L146 0 L146 3 L140 3 C125 3 111 28 111 53 L111 53 L109 690 C270 460 430 229 591 -1 L605 -1 L610 740 L610 740 C610 765 625 790 639 790 L645 790 L645 793 L589 793 L589 740 L589 740 L591 130 L582 143 L124 793 L3 793 L3 790 C25 790 52 769 73 740 L90 716 L89 52 L89 52 C89 27 75 2 60 2 L54 2 L54 0 L54 0 Z " />
<glyph glyph-name="Ncaron" unicode="&#x147;" horiz-adv-x="704" d="M491 1087 L350 927 L208 1087 L200 1080 L328 882 C331 877 344 861 350 861 C356 861 368 877 371 882 L499 1080 L491 1087 L491 1087 Z M54 0 L146 0 L146 3 L140 3 C125 3 111 28 111 53 L111 53 L109 690 C270 460 430 229 591 -1 L605 -1 L610 740 L610 740 C610 765 625 790 639 790 L645 790 L645 793 L589 793 L589 740 L589 740 L591 130 L582 143 L124 793 L3 793 L3 790 C25 790 52 769 73 740 L90 716 L89 52 L89 52 C89 27 75 2 60 2 L54 2 L54 0 L54 0 Z " />
<glyph glyph-name="ncaron" unicode="&#x148;" horiz-adv-x="472" d="M376 837 L234 676 L92 837 L84 830 L213 632 C216 627 228 611 234 611 C240 611 252 627 255 632 L384 830 L376 837 L376 837 Z M25 527 L28 527 C34 525 40 502 40 479 L40 0 L100 0 L100 409 C145 467 225 523 261 523 C320 523 368 446 368 367 L368 0 L428 0 L428 367 C428 461 362 554 280 554 C242 554 153 487 100 419 L100 544 L70 544 C59 541 36 535 25 532 L25 527 L25 527 Z " />
<glyph glyph-name="Omacron" unicode="&#x14c;" horiz-adv-x="852" d="M253 944 L593 944 L593 985 L253 985 L253 944 L253 944 Z M135 397 C135 600 277 799 422 799 C572 799 720 600 720 397 C720 194 569 -5 414 -5 C273 -5 135 194 135 397 L135 397 Z M58 397 C58 191 234 -10 413 -10 C607 -10 797 191 797 397 C797 603 612 804 423 804 C239 804 58 603 58 397 L58 397 Z " />
<glyph glyph-name="omacron" unicode="&#x14d;" horiz-adv-x="633" d="M147 694 L487 694 L487 735 L147 735 L147 694 L147 694 Z M111 272 C111 411 213 548 317 548 C421 548 522 411 522 272 C522 133 421 -4 317 -4 C213 -4 111 133 111 272 L111 272 Z M45 272 C45 130 180 -10 317 -10 C454 -10 588 130 588 272 C588 414 454 554 317 554 C180 554 45 414 45 272 L45 272 Z " />
<glyph glyph-name="Obreve" unicode="&#x14e;" horiz-adv-x="852" d="M281 1039 C284 982 355 927 423 927 C491 927 562 981 565 1037 L552 1039 C550 1004 486 970 423 970 C360 970 296 1005 294 1040 L281 1039 L281 1039 Z M135 397 C135 600 277 799 422 799 C572 799 720 600 720 397 C720 194 569 -5 414 -5 C273 -5 135 194 135 397 L135 397 Z M58 397 C58 191 234 -10 413 -10 C607 -10 797 191 797 397 C797 603 612 804 423 804 C239 804 58 603 58 397 L58 397 Z " />
<glyph glyph-name="obreve" unicode="&#x14f;" horiz-adv-x="633" d="M175 789 C178 732 249 677 317 677 C385 677 456 731 459 787 L446 789 C444 754 380 720 317 720 C254 720 190 755 188 790 L175 789 L175 789 Z M111 272 C111 411 213 548 317 548 C421 548 522 411 522 272 C522 133 421 -4 317 -4 C213 -4 111 133 111 272 L111 272 Z M45 272 C45 130 180 -10 317 -10 C454 -10 588 130 588 272 C588 414 454 554 317 554 C180 554 45 414 45 272 L45 272 Z " />
<glyph glyph-name="Racute" unicode="&#x154;" horiz-adv-x="673" d="M300 857 L440 979 C474 1010 508 1042 508 1046 C508 1060 492 1076 478 1076 C475 1076 443 1042 413 1007 L293 865 L300 857 L300 857 Z M663 0 C600 0 579 12 554 64 C484 208 415 350 394 393 C487 415 564 483 564 571 C564 684 448 794 329 794 L103 794 L103 0 L174 0 L174 385 L325 385 C340 345 407 199 472 65 C497 13 534 1 664 1 L663 0 L663 0 Z M174 403 L174 781 L308 781 C398 781 486 684 486 586 C486 480 408 403 329 403 L174 403 L174 403 Z " />
<glyph glyph-name="Rcaron" unicode="&#x158;" horiz-adv-x="673" d="M435 1087 L294 927 L152 1087 L144 1080 L272 882 C275 877 288 861 294 861 C300 861 312 877 315 882 L443 1080 L435 1087 L435 1087 Z M663 0 C600 0 579 12 554 64 C484 208 415 350 394 393 C487 415 564 483 564 571 C564 684 448 794 329 794 L103 794 L103 0 L174 0 L174 385 L325 385 C340 345 407 199 472 65 C497 13 534 1 664 1 L663 0 L663 0 Z M174 403 L174 781 L308 781 C398 781 486 684 486 586 C486 480 408 403 329 403 L174 403 L174 403 Z " />
<glyph glyph-name="rcaron" unicode="&#x159;" horiz-adv-x="361" d="M332 837 L191 677 L49 837 L41 830 L169 632 C172 627 185 611 191 611 C197 611 209 627 212 632 L340 830 L332 837 L332 837 Z M26 527 L29 527 C35 525 41 502 41 479 L41 0 L101 0 L101 413 C133 471 198 526 237 526 C259 526 280 509 280 491 C280 473 298 456 316 456 C334 456 351 473 351 491 C351 523 308 554 265 554 C216 554 137 490 101 423 L101 544 L71 544 C60 541 37 535 26 532 L26 527 L26 527 Z " />
<glyph glyph-name="Sacute" unicode="&#x15a;" horiz-adv-x="574" d="M294 857 L434 979 C468 1010 502 1042 502 1046 C502 1060 486 1076 472 1076 C468 1076 436 1042 406 1007 L286 865 L294 857 L294 857 Z M260 804 C164 804 70 706 70 606 C70 534 169 418 293 360 C395 312 477 226 477 176 C477 86 396 -3 314 -3 C270 -3 215 21 167 57 C131 86 86 145 71 182 C70 186 66 192 65 196 L52 196 L52 59 L57 59 C57 64 58 74 58 79 C59 101 89 99 117 75 L117 75 C174 26 252 -10 314 -10 C425 -10 534 92 534 197 C534 270 446 383 335 434 C219 488 126 582 126 633 C126 717 192 799 260 799 C292 799 329 788 363 770 L363 770 C403 749 458 692 473 654 C474 650 478 644 479 640 L492 640 L492 741 L487 741 C487 738 486 733 486 730 C485 718 462 723 441 739 L441 739 C399 771 327 805 260 805 L260 804 L260 804 Z " />
<glyph glyph-name="Scircumflex" unicode="&#x15c;" horiz-adv-x="574" d="M260 804 C164 804 70 706 70 606 C70 534 169 418 293 360 C395 312 477 226 477 176 C477 86 396 -3 314 -3 C270 -3 215 21 167 57 C131 86 86 145 71 182 C70 186 66 192 65 196 L52 196 L52 59 L57 59 C57 64 58 74 58 79 C59 101 89 99 117 75 L117 75 C174 26 252 -10 314 -10 C425 -10 534 92 534 197 C534 270 446 383 335 434 C219 488 126 582 126 633 C126 717 192 799 260 799 C292 799 329 788 363 770 L363 770 C403 749 458 692 473 654 C474 650 478 644 479 640 L492 640 L492 741 L487 741 C487 738 486 733 486 730 C485 718 462 723 441 739 L441 739 C399 771 327 805 260 805 L260 804 L260 804 Z M308 1057 C305 1062 293 1078 287 1078 C281 1078 269 1062 266 1057 L137 859 L145 852 L287 1013 L429 852 L437 859 L308 1057 L308 1057 Z " />
<glyph glyph-name="Scaron" unicode="&#x160;" horiz-adv-x="574" d="M429 1087 L287 926 L145 1087 L137 1080 L266 882 C269 877 281 861 287 861 C293 861 305 877 308 882 L437 1080 L429 1087 L429 1087 Z M260 804 C164 804 70 706 70 606 C70 534 169 418 293 360 C395 312 477 226 477 176 C477 86 396 -3 314 -3 C270 -3 215 21 167 57 C131 86 86 145 71 182 C70 186 66 192 65 196 L52 196 L52 59 L57 59 C57 64 58 74 58 79 C59 101 89 99 117 75 L117 75 C174 26 252 -10 314 -10 C425 -10 534 92 534 197 C534 270 446 383 335 434 C219 488 126 582 126 633 C126 717 192 799 260 799 C292 799 329 788 363 770 L363 770 C403 749 458 692 473 654 C474 650 478 644 479 640 L492 640 L492 741 L487 741 C487 738 486 733 486 730 C485 718 462 723 441 739 L441 739 C399 771 327 805 260 805 L260 804 L260 804 Z " />
<glyph glyph-name="scaron" unicode="&#x161;" horiz-adv-x="450" d="M381 837 L239 676 L97 837 L89 830 L218 632 C221 627 233 611 239 611 C245 611 257 627 260 632 L389 830 L381 837 L381 837 Z M373 432 L373 496 L370 496 C370 494 369 492 369 490 C369 490 293 533 277 541 L276 540 C252 549 227 555 205 555 C132 555 60 489 60 421 C60 365 133 283 225 250 C296 224 353 162 353 119 C353 56 296 -5 238 -5 C212 -5 180 8 151 28 C124 48 84 96 66 129 C65 130 64 134 63 135 L59 135 L59 60 L63 60 L63 68 C64 73 92 58 120 37 C156 10 201 -8 238 -8 C319 -8 399 63 399 136 C399 190 333 267 251 297 C169 327 103 396 103 443 C103 498 153 552 205 552 C226 552 250 545 273 533 C302 517 348 472 365 439 C366 438 367 434 368 433 L373 432 L373 432 Z " />
<glyph glyph-name="Tcaron" unicode="&#x164;" horiz-adv-x="801" d="M545 1087 L403 926 L261 1087 L253 1080 L382 882 C385 877 397 861 403 861 C409 861 421 877 424 882 L553 1080 L545 1087 L545 1087 Z M54 792 C55 793 55 794 55 794 L54 792 L54 792 Z M51 785 C52 786 53 788 53 789 L51 785 L51 785 Z M780 701 C772 722 755 764 747 785 L747 794 L55 794 L55 780 C46 758 31 720 24 700 L33 700 L41 712 C61 744 122 775 165 775 L366 775 L366 -1 L437 -1 L437 775 L640 775 C683 775 744 744 764 712 L772 700 L780 701 L780 701 Z M748 793 L749 793 C749 793 752 786 752 784 L748 793 L748 793 Z " />
<glyph glyph-name="tcaron" unicode="&#x165;" horiz-adv-x="367" d="M325 544 L159 544 L159 675 L154 675 L33 531 L33 521 L98 521 L98 150 C98 53 162 -10 228 -10 C269 -10 333 36 357 83 L350 87 C333 53 281 19 246 19 C201 19 157 65 157 137 L159 512 L325 512 L325 544 L325 544 Z M416 802 C406 802 392 733 388 695 L374 584 L385 581 L419 688 C431 725 443 777 443 793 C443 798 430 802 416 802 L416 802 Z " />
<glyph glyph-name="Utilde" unicode="&#x168;" horiz-adv-x="648" d="M164 914 C164 946 190 978 216 978 C267 978 367 913 418 913 C455 913 491 964 491 1016 L487 1016 C487 986 459 956 431 956 C380 956 281 1021 230 1021 C195 1021 160 968 160 914 L164 914 L164 914 Z M549 0 C558 2 575 7 584 9 L584 794 L514 794 L514 188 C478 111 359 36 273 36 C205 36 138 131 138 228 L138 794 L67 794 L67 228 C67 108 155 -10 244 -10 C341 -10 475 72 514 156 L514 0 L549 0 L549 0 Z " />
<glyph glyph-name="utilde" unicode="&#x169;" horiz-adv-x="475" d="M74 665 C74 697 100 729 126 729 C177 729 277 664 328 664 C365 664 401 715 401 767 L397 767 C397 737 369 707 341 707 C290 707 191 772 140 772 C105 772 70 719 70 665 L74 665 L74 665 Z M436 62 L436 544 L406 544 L406 545 L375 545 L375 134 C347 81 271 33 211 33 C153 33 96 100 96 168 L96 545 L36 545 L36 168 C36 79 109 -9 183 -9 C251 -9 341 57 375 128 L375 1 L406 1 C413 5 426 9 436 9 L436 62 L436 62 Z " />
<glyph glyph-name="Umacron" unicode="&#x16a;" horiz-adv-x="648" d="M156 944 L495 944 L495 985 L156 985 L156 944 L156 944 Z M549 0 C558 2 575 7 584 9 L584 794 L514 794 L514 188 C478 111 359 36 273 36 C205 36 138 131 138 228 L138 794 L67 794 L67 228 C67 108 155 -10 244 -10 C341 -10 475 72 514 156 L514 0 L549 0 L549 0 Z " />
<glyph glyph-name="umacron" unicode="&#x16b;" horiz-adv-x="475" d="M66 695 L405 695 L405 736 L66 736 L66 695 L66 695 Z M436 62 L436 544 L406 544 L406 545 L375 545 L375 134 C347 81 271 33 211 33 C153 33 96 100 96 168 L96 545 L36 545 L36 168 C36 79 109 -9 183 -9 C251 -9 341 57 375 128 L375 1 L406 1 C413 5 426 9 436 9 L436 62 L436 62 Z " />
<glyph glyph-name="Ubreve" unicode="&#x16c;" horiz-adv-x="648" d="M184 1039 C187 982 258 927 326 927 C394 927 465 981 468 1037 L455 1039 C453 1004 389 970 326 970 C263 970 198 1005 196 1040 L184 1039 L184 1039 Z M549 0 C558 2 575 7 584 9 L584 794 L514 794 L514 188 C478 111 359 36 273 36 C205 36 138 131 138 228 L138 794 L67 794 L67 228 C67 108 155 -10 244 -10 C341 -10 475 72 514 156 L514 0 L549 0 L549 0 Z " />
<glyph glyph-name="ubreve" unicode="&#x16d;" horiz-adv-x="475" d="M94 790 C97 733 168 678 236 678 C304 678 375 732 378 788 L365 790 C363 755 299 721 236 721 C173 721 108 756 106 791 L94 790 L94 790 Z M436 62 L436 544 L406 544 L406 545 L375 545 L375 134 C347 81 271 33 211 33 C153 33 96 100 96 168 L96 545 L36 545 L36 168 C36 79 109 -9 183 -9 C251 -9 341 57 375 128 L375 1 L406 1 C413 5 426 9 436 9 L436 62 L436 62 Z " />
<glyph glyph-name="Uring" unicode="&#x16e;" horiz-adv-x="648" d="M246 949 C246 990 286 1030 326 1030 C366 1030 405 990 405 949 C405 912 362 868 326 868 C290 868 246 912 246 949 L246 949 Z M229 949 C229 906 282 854 326 854 C370 854 422 906 422 949 C422 997 374 1044 326 1044 C277 1044 229 997 229 949 L229 949 Z M549 0 C558 2 575 7 584 9 L584 794 L514 794 L514 188 C478 111 359 36 273 36 C205 36 138 131 138 228 L138 794 L67 794 L67 228 C67 108 155 -10 244 -10 C341 -10 475 72 514 156 L514 0 L549 0 L549 0 Z " />
<glyph glyph-name="uring" unicode="&#x16f;" horiz-adv-x="475" d="M156 700 C156 741 196 781 236 781 C276 781 315 741 315 700 C315 663 272 619 236 619 C200 619 156 663 156 700 L156 700 Z M139 700 C139 657 192 605 236 605 C280 605 332 657 332 700 C332 748 284 795 236 795 C187 795 139 748 139 700 L139 700 Z M436 62 L436 544 L406 544 L406 545 L375 545 L375 134 C347 81 271 33 211 33 C153 33 96 100 96 168 L96 545 L36 545 L36 168 C36 79 109 -9 183 -9 C251 -9 341 57 375 128 L375 1 L406 1 C413 5 426 9 436 9 L436 62 L436 62 Z " />
<glyph glyph-name="Wcircumflex" unicode="&#x174;" horiz-adv-x="1028" d="M605 794 L418 794 L418 791 L423 791 C435 791 457 759 471 724 C492 659 515 593 536 529 L347 86 C277 294 207 503 137 711 C123 751 135 791 160 791 L169 791 L169 794 L7 794 L7 791 L11 791 C21 791 45 751 59 711 L59 711 C141 471 224 231 305 -10 L323 -10 L546 498 L715 -10 L733 -10 L951 717 C964 755 993 791 1011 791 L1018 791 L1018 794 L852 794 L852 791 L866 791 C906 791 935 751 923 711 L746 98 L549 719 C541 756 561 791 593 791 L605 791 L605 794 L605 794 Z M523 1056 C520 1061 508 1077 502 1077 C496 1077 484 1061 481 1056 L352 858 L360 851 L502 1012 L644 851 L652 858 L523 1056 L523 1056 Z " />
<glyph glyph-name="Ycircumflex" unicode="&#x176;" horiz-adv-x="639" d="M348 1056 C345 1061 333 1077 327 1077 C321 1077 308 1061 305 1056 L177 858 L185 851 L327 1011 L468 851 L476 858 L348 1056 L348 1056 Z M162 794 L6 794 L6 791 C18 791 35 772 53 745 L291 347 L291 0 L362 0 L362 357 L573 744 C592 773 618 791 643 791 L643 794 L515 794 L515 791 L533 791 C561 791 574 764 560 736 L361 363 L141 738 C127 765 133 791 155 791 L163 791 L162 794 L162 794 Z " />
<glyph glyph-name="Ydieresis" unicode="&#x178;" horiz-adv-x="639" d="M399 909 C418 909 437 928 437 948 C437 968 418 987 399 987 C379 987 360 968 360 948 C360 928 379 909 399 909 L399 909 Z M254 909 C274 909 293 928 293 948 C293 968 274 987 254 987 C235 987 216 968 216 948 C216 928 235 909 254 909 L254 909 Z M162 794 L6 794 L6 791 C18 791 35 772 53 745 L291 347 L291 0 L362 0 L362 357 L573 744 C592 773 618 791 643 791 L643 794 L515 794 L515 791 L533 791 C561 791 574 764 560 736 L361 363 L141 738 C127 765 133 791 155 791 L163 791 L162 794 L162 794 Z " />
<glyph glyph-name="Zacute" unicode="&#x179;" horiz-adv-x="654" d="M360 857 L500 979 C534 1010 568 1042 568 1046 C568 1060 552 1076 538 1076 C535 1076 503 1042 473 1007 L353 865 L360 857 L360 857 Z M61 699 L70 699 L74 711 C84 743 146 773 198 775 L561 779 L25 14 L25 0 L633 0 L638 21 L638 21 L655 96 L646 96 L640 84 C626 52 560 22 508 20 L108 15 L637 780 L637 794 L70 794 C67 764 65 742 61 699 L61 699 Z " />
<glyph glyph-name="Zdot" unicode="&#x17b;" horiz-adv-x="654" d="M354 909 C373 909 392 928 392 948 C392 968 373 987 354 987 C334 987 315 968 315 948 C315 928 334 909 354 909 L354 909 Z M61 699 L70 699 L74 711 C84 743 146 773 198 775 L561 779 L25 14 L25 0 L633 0 L638 21 L638 21 L655 96 L646 96 L640 84 C626 52 560 22 508 20 L108 15 L637 780 L637 794 L70 794 C67 764 65 742 61 699 L61 699 Z " />
<glyph glyph-name="zdot" unicode="&#x17c;" horiz-adv-x="502" d="M265 659 C285 659 304 678 304 698 C304 718 285 737 265 737 C245 737 226 718 226 698 C226 678 245 659 265 659 L265 659 Z M64 544 L60 529 L46 476 L57 476 L62 483 C74 502 126 522 168 524 L390 528 L39 13 L39 -1 L456 -1 L456 9 L459 9 L465 67 L454 67 L450 60 C440 41 392 21 350 18 L113 14 L461 529 L461 543 L67 543 L67 533 L61 533 L64 543 L64 544 L64 544 Z M59 527 L58 525 L59 527 L59 527 Z " />
<glyph glyph-name="Zcaron" unicode="&#x17d;" horiz-adv-x="654" d="M495 1087 L354 927 L212 1087 L204 1080 L332 882 C335 877 348 861 354 861 C360 861 372 877 375 882 L503 1080 L495 1087 L495 1087 Z M61 699 L70 699 L74 711 C84 743 146 773 198 775 L561 779 L25 14 L25 0 L633 0 L638 21 L638 21 L655 96 L646 96 L640 84 C626 52 560 22 508 20 L108 15 L637 780 L637 794 L70 794 C67 764 65 742 61 699 L61 699 Z " />
<glyph glyph-name="zcaron" unicode="&#x17e;" horiz-adv-x="502" d="M407 837 L265 676 L123 837 L115 830 L244 632 C247 627 259 611 265 611 C271 611 283 627 286 632 L415 830 L407 837 L407 837 Z M64 544 L60 529 L46 476 L57 476 L62 483 C74 502 126 522 168 524 L390 528 L39 13 L39 -1 L456 -1 L456 9 L459 9 L465 67 L454 67 L450 60 C440 41 392 21 350 18 L113 14 L461 529 L461 543 L67 543 L67 533 L61 533 L64 543 L64 544 L64 544 Z M59 527 L58 525 L59 527 L59 527 Z " />
<glyph glyph-name="oogonek" unicode="&#x1eb;" horiz-adv-x="755" d="M1003 -52 L1002 -50 C977 -71 844 -92 733 -92 C598 -92 405 -51 329 -7 C342 -9 355 -10 368 -10 C538 -10 705 150 705 314 C705 477 543 637 378 637 C217 637 60 477 60 314 C60 186 153 60 268 11 C378 -63 604 -134 725 -134 C816 -134 954 -93 1003 -52 L1003 -52 Z M129 314 C129 475 252 632 377 632 C507 632 635 475 635 314 C635 151 500 -8 363 -8 C245 -8 129 151 129 314 L129 314 Z " />
<glyph glyph-name="Adotabove" unicode="&#x226;" horiz-adv-x="644" d="M325 909 C344 909 363 928 363 948 C363 968 344 987 325 987 C305 987 286 968 286 948 C286 928 305 909 325 909 L325 909 Z M440 0 L644 0 L644 3 L637 3 C618 3 584 53 568 103 C494 340 420 577 347 814 L340 814 C343 797 318 776 289 772 L292 762 L87 103 C71 52 20 3 -16 3 L-29 3 L-29 0 L146 0 L146 3 L133 3 C97 3 77 53 93 103 L93 103 L157 311 L430 311 L496 94 C506 47 486 4 452 4 L439 4 L440 0 L440 0 Z M158 318 L293 757 L427 318 L158 318 L158 318 Z " />
<glyph glyph-name="G_sc" unicode="&#x262;" horiz-adv-x="684" d="M612 483 L612 592 L607 592 C607 588 606 582 606 578 C605 563 578 565 551 581 C503 613 439 637 364 637 C210 637 60 477 60 314 C60 150 209 -10 362 -10 C428 -10 506 5 574 26 L593 31 L593 32 C621 41 647 51 669 61 L667 64 C647 55 622 46 594 37 L594 271 L531 271 L531 268 C531 268 531 226 531 183 C531 148 531 108 531 76 C523 38 448 2 371 2 C249 2 130 156 130 313 C130 474 246 631 365 631 C411 631 455 617 493 596 C538 570 586 521 599 481 L612 483 L612 483 Z M453 6 C426 3 398 1 371 1 C388 1 421 3 452 6 L453 6 L453 6 Z " />
<glyph glyph-name="I_sc" unicode="&#x26a;" horiz-adv-x="265" d="M171 0 L171 627 L108 627 L108 0 L171 0 L171 0 Z " />
<glyph glyph-name="N_sc" unicode="&#x274;" horiz-adv-x="616" d="M11 624 C32 624 60 603 81 576 L91 563 L90 54 C90 29 76 4 61 4 L55 4 L55 1 L144 1 L144 4 L138 4 C123 4 109 29 109 54 L109 54 L107 541 C239 361 371 181 503 1 L516 1 L521 575 L521 575 C521 600 536 625 550 625 L556 625 L556 628 L501 628 L501 575 L501 575 L503 90 C375 269 248 449 121 628 L10 628 L11 624 L11 624 Z " />
<glyph glyph-name="R_sc" unicode="&#x280;" horiz-adv-x="570" d="M560 0 C505 0 486 10 464 50 C403 161 343 271 323 308 C405 326 473 380 473 450 C473 539 369 626 263 626 L105 626 L105 -1 L168 -1 L168 301 L260 301 C274 269 332 155 390 50 C412 10 445 0 561 0 L560 0 L560 0 Z M168 318 L168 615 L244 615 C324 615 403 540 403 463 C403 379 334 318 263 318 L168 318 L168 318 Z " />
<glyph glyph-name="Y_sc" unicode="&#x28f;" horiz-adv-x="548" d="M552 627 L424 627 L424 624 L442 624 C469 624 481 599 468 572 L310 287 C252 381 193 476 136 570 C119 598 124 625 147 625 L155 625 L155 628 L7 628 L7 625 C19 625 43 600 61 570 L61 570 L247 274 L247 1 L311 1 L311 282 L475 570 C493 602 524 625 550 625 L552 627 L552 627 Z " />
<glyph glyph-name="B_sc" unicode="&#x299;" horiz-adv-x="528" d="M281 2 L231 2 C199 2 167 18 167 34 L167 322 L299 322 C359 322 417 243 417 163 C417 53 350 2 281 2 L281 2 Z M287 0 C389 0 488 52 488 163 C488 245 401 325 312 325 L303 325 C392 340 470 407 470 476 C470 552 395 627 234 627 L104 627 L104 0 L287 0 L287 0 Z M265 325 L167 325 L167 623 L227 623 C350 623 407 547 407 470 C407 397 337 325 265 325 L265 325 Z " />
<glyph glyph-name="H_sc" unicode="&#x29c;" horiz-adv-x="674" d="M580 0 L580 627 L517 627 L517 325 L203 325 L203 627 L140 627 L140 0 L203 0 L203 320 L517 320 L517 0 L580 0 L580 0 Z " />
<glyph glyph-name="L_sc" unicode="&#x29f;" horiz-adv-x="478" d="M205 11 C179 11 171 22 171 34 L171 627 L108 627 L108 0 L454 0 C454 23 464 65 468 87 L459 87 L454 75 C441 43 378 12 325 12 L205 11 L205 11 Z " />
<glyph glyph-name="circumflex" unicode="&#x2c6;" horiz-adv-x="373" d="M208 806 C205 811 193 827 187 827 C181 827 168 811 165 806 L37 608 L45 601 L187 761 L328 601 L336 608 L208 806 L208 806 Z " />
<glyph glyph-name="caron" unicode="&#x2c7;" horiz-adv-x="373" d="M328 837 L187 677 L45 837 L37 830 L165 632 C168 627 181 611 187 611 C193 611 205 627 208 632 L336 830 L328 837 L328 837 Z " />
<glyph glyph-name="firsttonechinese" unicode="&#x2c9;" horiz-adv-x="373" d="M17 694 L357 694 L357 735 L17 735 L17 694 L17 694 Z " />
<glyph glyph-name="breve" unicode="&#x2d8;" horiz-adv-x="373" d="M45 789 C48 732 119 677 187 677 C255 677 326 731 329 787 L316 789 C314 754 250 720 187 720 C124 720 59 755 57 790 L45 789 L45 789 Z " />
<glyph glyph-name="dotaccent" unicode="&#x2d9;" horiz-adv-x="373" d="M187 659 C207 659 226 678 226 698 C226 718 207 737 187 737 C167 737 148 718 148 698 C148 678 167 659 187 659 L187 659 Z " />
<glyph glyph-name="ring" unicode="&#x2da;" horiz-adv-x="373" d="M107 699 C107 740 147 780 187 780 C227 780 266 740 266 699 C266 662 223 618 187 618 C151 618 107 662 107 699 L107 699 Z M90 699 C90 656 143 604 187 604 C231 604 284 656 284 699 C284 747 236 794 187 794 C138 794 90 747 90 699 L90 699 Z " />
<glyph glyph-name="A_sc" unicode="&#x1d00;" horiz-adv-x="559" d="M363 0 L559 0 L559 3 L552 3 C534 3 501 50 483 98 C423 281 363 464 302 647 L296 647 C299 632 276 615 250 611 L253 601 L253 601 L88 100 C70 50 20 3 -15 3 L-28 3 L-28 0 L147 0 L147 3 L134 3 C98 3 80 53 96 103 L96 103 L142 245 L370 245 L419 95 C431 47 412 3 378 3 L365 3 L363 0 L363 0 Z M145 251 L257 595 L369 251 L145 251 L145 251 Z " />
<glyph glyph-name="C_sc" unicode="&#x1d04;" horiz-adv-x="658" d="M613 32 L613 144 L600 144 C587 104 537 54 494 30 C453 8 405 -6 356 -6 C242 -6 131 152 131 314 C131 475 247 632 366 632 C412 632 456 618 494 597 C539 571 587 522 600 482 L613 482 L613 591 L608 591 C608 587 607 581 607 577 C606 562 579 564 552 580 C504 612 440 636 365 636 C211 636 61 476 61 313 C61 149 207 -11 355 -11 C431 -11 500 11 550 42 L550 42 C578 59 608 61 609 45 C609 41 610 35 610 31 L613 32 L613 32 Z " />
<glyph glyph-name="D_sc" unicode="&#x1d05;" horiz-adv-x="713" d="M225 4 C181 4 167 19 167 34 L167 623 L247 623 C436 623 588 470 588 314 C588 142 408 4 225 4 L225 4 Z M230 0 C446 0 658 140 658 314 C658 472 482 627 262 627 L104 627 L104 0 L230 0 L230 0 Z " />
<glyph glyph-name="E_sc" unicode="&#x1d07;" horiz-adv-x="508" d="M375 237 L375 322 L376 322 L376 327 L375 327 L375 412 L366 412 L363 399 C356 363 310 327 270 327 L167 327 L167 623 L331 623 C372 623 422 587 433 551 L438 538 L447 538 C444 560 439 603 436 625 L436 627 L104 627 L104 0 L461 0 L461 2 C465 21 472 60 475 79 L466 79 L461 67 C448 35 385 4 332 4 L201 4 C175 4 167 19 167 34 L167 322 L270 322 C310 322 356 286 363 250 L366 237 L375 237 L375 237 Z " />
<glyph glyph-name="J_sc" unicode="&#x1d0a;" horiz-adv-x="265" d="M108 -38 C108 -162 36 -213 -3 -213 C-30 -213 -24 -162 -51 -162 C-65 -162 -79 -176 -79 -191 C-79 -206 -44 -220 -8 -220 C56 -220 172 -132 172 82 C172 220 171 627 171 627 L108 627 L108 -38 L108 -38 Z " />
<glyph glyph-name="K_sc" unicode="&#x1d0b;" horiz-adv-x="569" d="M567 3 C547 3 517 22 491 48 L216 354 L398 565 C430 600 472 624 504 624 L504 627 L323 627 L323 624 L339 624 C381 624 384 578 347 530 L166 314 L166 627 L103 627 L103 0 L166 0 L166 314 L455 0 L566 0 L567 3 L567 3 Z " />
<glyph glyph-name="M_sc" unicode="&#x1d0d;" horiz-adv-x="715" d="M51 624 C71 624 91 606 105 580 L86 49 C84 25 70 3 56 3 L50 3 L50 0 L142 0 L142 3 C123 3 111 19 109 46 L122 545 C200 364 278 182 357 1 L373 1 L589 574 C594 401 600 227 604 54 C605 29 591 4 577 4 L571 4 L571 1 L705 1 L705 4 L699 4 C685 4 671 26 669 50 C663 225 657 400 651 575 C650 600 663 625 678 625 L684 625 L684 628 L588 628 L389 86 L163 628 L54 628 L51 624 L51 624 Z " />
<glyph glyph-name="O_sc" unicode="&#x1d0f;" horiz-adv-x="760" d="M129 314 C129 475 252 632 377 632 C507 632 635 475 635 314 C635 153 503 -5 368 -5 C247 -5 129 153 129 314 L129 314 Z M60 314 C60 150 212 -10 368 -10 C538 -10 705 150 705 314 C705 477 543 637 378 637 C217 637 60 477 60 314 L60 314 Z " />
<glyph glyph-name="P_sc" unicode="&#x1d18;" horiz-adv-x="468" d="M183 0 L183 292 L223 292 C337 292 448 359 448 452 C448 540 356 627 262 627 L120 627 L120 0 L183 0 L183 0 Z M183 305 L183 617 C183 617 230 616 246 616 C318 616 388 540 388 462 C388 371 306 305 223 305 L183 305 L183 305 Z " />
<glyph glyph-name="T_sc" unicode="&#x1d1b;" horiz-adv-x="733" d="M679 622 L679 625 C679 624 679 623 679 622 L679 619 L679 622 L679 622 Z M709 536 C701 555 687 589 678 611 L678 621 L676 626 L54 626 L51 618 L51 621 C52 625 52 626 54 626 L54 618 C45 597 28 556 20 535 L29 535 L37 547 C57 579 118 610 161 610 L334 610 L334 -1 L398 -1 L398 610 L568 610 C611 610 672 579 692 547 L700 535 L709 536 L709 536 Z M678 624 L678 626 C676 626 677 626 678 624 L678 624 Z " />
<glyph glyph-name="U_sc" unicode="&#x1d1c;" horiz-adv-x="552" d="M488 63 L488 627 L456 627 L456 628 L424 628 L424 164 C393 97 290 31 216 31 C174 31 132 118 132 207 L132 627 L101 627 L101 628 L69 628 L69 207 C69 97 129 -10 190 -10 C274 -10 390 62 424 135 L424 0 L456 0 L488 9 L488 19 L488 63 L488 63 Z M488 19 L488 62 L488 19 L488 19 Z " />
<glyph glyph-name="V_sc" unicode="&#x1d20;" horiz-adv-x="611" d="M595 627 L432 627 L432 624 L447 624 C488 624 511 577 495 529 L325 93 L145 532 C129 579 144 624 178 624 L191 624 L191 627 L9 627 L9 624 C24 624 49 582 70 532 C142 351 214 170 286 -11 L299 -11 L517 523 C538 573 574 623 591 623 L597 623 L595 627 L595 627 Z " />
<glyph glyph-name="W_sc" unicode="&#x1d21;" horiz-adv-x="884" d="M162 627 L8 627 L8 624 L12 624 C22 624 47 584 62 544 L62 544 C129 359 196 174 264 -10 L280 -10 L463 392 C510 258 557 124 605 -9 L621 -9 C681 176 741 361 801 546 C814 586 846 626 865 626 L872 626 L872 629 L708 629 L708 626 L722 626 C762 626 790 586 777 546 L635 91 C583 243 530 395 479 546 C465 586 484 626 518 626 L530 626 L530 629 L351 629 L351 626 L356 626 C368 626 395 586 409 546 L409 546 L454 420 L302 78 L128 554 C117 591 128 626 151 626 L160 626 L162 627 L162 627 Z " />
<glyph glyph-name="Z_sc" unicode="&#x1d22;" horiz-adv-x="586" d="M71 534 L75 546 C84 576 138 606 188 611 L498 615 L24 14 L24 1 L564 1 L566 10 C566 10 576 52 586 95 L577 95 L571 83 C557 51 492 20 438 19 L438 19 L101 15 L568 616 L568 628 L514 628 L509 629 L508 628 L69 628 L67 610 L68 610 L61 535 L71 534 L71 534 Z " />
<glyph glyph-name="Wgrave" unicode="&#x1e80;" horiz-adv-x="1028" d="M605 794 L418 794 L418 791 L423 791 C435 791 457 759 471 724 C492 659 515 593 536 529 L347 86 C277 294 207 503 137 711 C123 751 135 791 160 791 L169 791 L169 794 L7 794 L7 791 L11 791 C21 791 45 751 59 711 L59 711 C141 471 224 231 305 -10 L323 -10 L546 498 L715 -10 L733 -10 L951 717 C964 755 993 791 1011 791 L1018 791 L1018 794 L852 794 L852 791 L866 791 C906 791 935 751 923 711 L746 98 L549 719 C541 756 561 791 593 791 L605 791 L605 794 L605 794 Z M297 1046 C297 1041 331 1008 365 979 L505 857 L513 865 L393 1007 C364 1042 332 1076 327 1076 C313 1076 297 1060 297 1046 L297 1046 Z " />
<glyph glyph-name="Wacute" unicode="&#x1e82;" horiz-adv-x="1028" d="M509 857 L649 979 C683 1010 717 1042 717 1046 C717 1060 701 1076 687 1076 C683 1076 651 1042 621 1007 L501 865 L509 857 L509 857 Z M605 794 L418 794 L418 791 L423 791 C435 791 457 759 471 724 C492 659 515 593 536 529 L347 86 C277 294 207 503 137 711 C123 751 135 791 160 791 L169 791 L169 794 L7 794 L7 791 L11 791 C21 791 45 751 59 711 L59 711 C141 471 224 231 305 -10 L323 -10 L546 498 L715 -10 L733 -10 L951 717 C964 755 993 791 1011 791 L1018 791 L1018 794 L852 794 L852 791 L866 791 C906 791 935 751 923 711 L746 98 L549 719 C541 756 561 791 593 791 L605 791 L605 794 L605 794 Z " />
<glyph glyph-name="Wdieresis" unicode="&#x1e84;" horiz-adv-x="1028" d="M574 909 C594 909 613 928 613 948 C613 968 594 987 574 987 C554 987 535 968 535 948 C535 928 554 909 574 909 L574 909 Z M430 909 C450 909 469 928 469 948 C469 968 450 987 430 987 C410 987 391 968 391 948 C391 928 410 909 430 909 L430 909 Z M605 794 L418 794 L418 791 L423 791 C435 791 457 759 471 724 C492 659 515 593 536 529 L347 86 C277 294 207 503 137 711 C123 751 135 791 160 791 L169 791 L169 794 L7 794 L7 791 L11 791 C21 791 45 751 59 711 L59 711 C141 471 224 231 305 -10 L323 -10 L546 498 L715 -10 L733 -10 L951 717 C964 755 993 791 1011 791 L1018 791 L1018 794 L852 794 L852 791 L866 791 C906 791 935 751 923 711 L746 98 L549 719 C541 756 561 791 593 791 L605 791 L605 794 L605 794 Z " />
<glyph glyph-name="Etilde" unicode="&#x1ebc;" horiz-adv-x="582" d="M144 914 C144 946 170 978 197 978 C248 978 348 913 399 913 C435 913 471 964 471 1016 L468 1016 C468 986 440 956 412 956 C361 956 261 1021 210 1021 C175 1021 141 968 141 914 L144 914 L144 914 Z M535 0 C535 4 547 71 549 79 L540 79 L535 67 C522 35 459 4 406 4 L207 4 C181 4 173 18 173 33 L173 407 L344 407 C384 407 430 371 437 335 L440 322 L449 322 L449 407 L450 407 L450 412 L449 412 L449 497 L440 497 L437 484 C430 448 384 412 344 412 L173 412 L173 788 L405 788 C446 788 496 752 507 716 L512 703 L521 703 C518 725 513 769 510 791 L510 793 L102 793 L102 -1 L535 0 L535 0 Z " />
<glyph glyph-name="Ygrave" unicode="&#x1ef2;" horiz-adv-x="639" d="M122 1046 C122 1041 156 1008 190 979 L330 857 L337 865 L217 1007 C188 1042 157 1076 152 1076 C138 1076 122 1060 122 1046 L122 1046 Z M162 794 L6 794 L6 791 C18 791 35 772 53 745 L291 347 L291 0 L362 0 L362 357 L573 744 C592 773 618 791 643 791 L643 794 L515 794 L515 791 L533 791 C561 791 574 764 560 736 L361 363 L141 738 C127 765 133 791 155 791 L163 791 L162 794 L162 794 Z " />
<glyph glyph-name="quoteleft" unicode="&#x2018;" horiz-adv-x="605" d="M73 673 C73 674 73 676 73 678 C73 728 102 785 131 793 L121 804 C88 795 55 727 55 667 C55 647 73 627 91 627 C105 627 119 641 119 656 C119 680 88 694 74 673 L73 673 L73 673 Z " />
<glyph glyph-name="quoteright" unicode="&#x2019;" horiz-adv-x="84" d="M96 759 L96 759 C96 704 75 645 54 639 L65 628 C90 635 114 705 114 770 C114 788 96 805 78 805 C64 805 50 791 50 777 C50 752 82 738 96 760 L96 759 L96 759 Z " />
<glyph glyph-name="quotedblleft" unicode="&#x201c;" horiz-adv-x="605" d="M154 673 C154 674 154 676 154 678 C154 728 182 785 211 793 L201 804 C168 795 136 727 136 667 C136 647 153 627 171 627 C186 627 200 641 200 656 C200 679 169 695 155 674 L154 673 L154 673 Z M62 674 C62 675 62 677 62 679 C62 729 91 786 120 794 L110 805 C77 796 44 728 44 668 C44 648 62 628 80 628 C94 628 108 642 108 657 C108 681 77 695 63 674 L62 674 L62 674 Z " />
<glyph glyph-name="quotedblright" unicode="&#x201d;" horiz-adv-x="605" d="M188 759 L188 759 C188 704 167 645 146 639 L157 628 C182 635 206 705 206 770 C206 788 188 805 170 805 C156 805 142 791 142 777 C142 752 174 738 188 760 L188 759 L188 759 Z M96 760 L96 760 C96 705 75 646 54 640 L65 629 C90 636 114 706 114 771 C114 789 96 806 78 806 C64 806 50 792 50 778 C50 753 82 739 96 761 L96 760 L96 760 Z " />
<glyph glyph-name="perthousand" unicode="&#x2030;" horiz-adv-x="1184" d="M921 217 C921 316 968 413 1015 413 C1066 413 1116 304 1116 193 C1116 94 1068 -4 1020 -4 C970 -4 921 105 921 217 L921 217 Z M862 205 C862 96 939 -10 1018 -10 C1096 -10 1172 100 1172 213 C1172 317 1096 418 1018 418 C939 418 862 313 862 205 L862 205 Z M89 599 C89 700 136 799 183 799 C234 799 284 688 284 575 C284 478 236 382 188 382 C138 382 89 489 89 599 L89 599 Z M30 587 C30 480 107 376 186 376 C264 376 340 484 340 595 C340 701 264 804 186 804 C107 804 30 697 30 587 L30 587 Z M561 216 C561 315 609 412 657 412 C712 412 765 303 765 192 C765 93 714 -4 662 -4 C611 -4 561 105 561 216 L561 216 Z M502 205 C502 96 580 -10 660 -10 C742 -10 822 100 822 213 C822 317 742 418 660 418 C580 418 502 313 502 205 L502 205 Z M190 -2 L668 792 L660 796 L181 2 L190 -2 L190 -2 Z " />
<glyph glyph-name="fraction" unicode="&#x2044;" horiz-adv-x="516" d="M34 -2 L512 792 L504 796 L26 2 L34 -2 L34 -2 Z " />
<glyph glyph-name="Euro" unicode="&#x20ac;" horiz-adv-x="798" d="M753 60 L753 129 L744 136 L744 136 L753 129 L753 173 L740 173 C727 133 674 76 631 50 L631 50 C578 17 515 -5 451 -5 C332 -5 215 152 190 329 L513 329 L519 372 L186 372 C185 389 185 406 186 423 L519 423 L525 466 L190 466 C216 643 338 800 462 800 C521 800 578 778 628 746 C628 746 711 686 735 634 C736 631 740 624 741 621 L754 621 L754 732 L749 732 C749 728 748 722 748 718 C746 702 717 707 688 728 L688 728 C629 772 551 805 461 805 C303 805 148 646 116 466 L63 466 L57 423 L111 423 C110 406 110 389 111 372 L57 372 L51 329 L116 329 C147 149 298 -10 451 -10 C552 -10 645 29 706 78 C701 73 696 69 692 66 C719 86 748 89 749 73 C749 69 750 63 750 59 L753 60 L753 60 Z " />
<glyph glyph-name="F_sc" unicode="&#xa730;" horiz-adv-x="483" d="M356 412 L353 399 C346 363 300 327 260 327 L167 327 L167 624 L330 624 C371 624 421 588 432 552 L437 539 L446 539 C443 560 438 601 435 624 L436 624 L436 627 L104 627 L104 0 L167 0 L167 322 L260 322 C300 322 346 286 353 250 L356 237 L365 237 L365 322 L366 322 L366 327 L365 327 L365 412 L356 412 L356 412 Z " />
<glyph glyph-name="S_sc" unicode="&#xa731;" horiz-adv-x="504" d="M65 162 L52 162 L52 26 L57 26 C57 31 58 41 58 46 C59 68 86 70 114 52 C161 16 224 -10 275 -10 C370 -10 463 72 463 155 C463 213 388 305 294 347 C197 391 120 464 120 504 C120 569 174 632 229 632 C249 632 271 627 293 618 C335 600 387 550 402 513 C403 509 407 503 408 499 L421 499 L421 598 L416 598 C416 595 415 590 415 587 C414 575 389 578 366 593 C351 603 334 612 317 619 C307 624 298 628 289 631 L288 628 C268 634 248 637 229 637 C149 637 71 559 71 479 C71 421 153 327 256 281 C343 242 412 174 412 136 C412 65 344 -4 275 -4 C246 -4 212 7 180 25 L180 25 C136 49 76 113 64 161 L65 162 L65 162 Z M61 127 L61 127 L61 127 L61 127 Z " />
<glyph glyph-name="X_sc" unicode="&#xf078;" horiz-adv-x="600" d="M430 0 L579 0 L579 3 C566 3 545 25 525 53 L332 341 L515 571 C540 602 576 625 601 625 L601 628 L456 628 L456 625 L474 625 C502 625 509 598 489 570 L489 570 L328 346 C278 421 228 496 179 570 C160 598 164 625 187 625 L195 625 L195 628 L47 628 L47 625 C59 625 79 604 99 577 L284 301 C223 220 163 139 102 59 C78 28 42 4 16 4 L16 1 L159 1 L159 4 L141 4 C114 4 106 31 126 59 L126 59 L291 289 C342 212 394 135 444 59 C463 31 459 4 436 4 L428 4 L430 0 L430 0 Z " />
</font>
</svg>
